<svg width="181" height="19" viewBox="0 0 181 19" fill="none" xmlns="http://www.w3.org/2000/svg">
<path d="M0 0.275811H6.65441V2.75811H2.56567V7.75829H6.08326V10.2495H2.56567V15.2497H6.65441V17.732H0V0.275811Z" fill="#A79A8B"/>
<path d="M8.37694 3.66561C8.37694 1.22187 9.60387 0 12.0577 0C14.5176 0 15.7476 1.22187 15.7476 3.66561V6.01446H13.1819V3.66561C13.1819 2.88267 12.8102 2.48823 12.0668 2.4823H12.0487C11.3113 2.4823 10.9426 2.87674 10.9426 3.66561V5.2493C10.9426 6.02632 11.7434 6.97831 13.3451 8.10528C14.9467 9.22632 15.7476 10.5698 15.7476 12.1357V14.3422C15.7476 16.7918 14.5206 18.0167 12.0668 18.0167C9.60689 18.0107 8.37694 16.7859 8.37694 14.3422V11.9933H10.9426V14.3422C10.9426 15.131 11.3173 15.5255 12.0668 15.5255C12.8102 15.5255 13.1819 15.131 13.1819 14.3422V12.3492C13.1819 11.5069 12.3811 10.5223 10.7794 9.39536C9.17777 8.27433 8.37694 6.9101 8.37694 5.30269V3.66561Z" fill="#A79A8B"/>
<path d="M23.5171 12.2335L26.4998 0.275811H29.0654V17.732H26.6086V7.93623L24.4146 17.732H22.674L20.4165 7.93623V17.732H17.9325V0.275811H20.4981L23.5171 12.2335Z" fill="#A79A8B"/>
<path d="M42.6734 0.275811V2.75811H40.271V17.732H37.7053V2.75811H35.3028V0.275811H42.6734Z" fill="#A79A8B"/>
<path d="M44.3144 0.275811H50.9688V2.75811H46.8801V7.75829H50.3976V10.2495H46.8801V15.2497H50.9688V17.732H44.3144V0.275811Z" fill="#A79A8B"/>
<path d="M60.0619 14.3422C60.0619 16.7859 58.832 18.0107 56.3721 18.0167C53.9183 18.0167 52.6913 16.7918 52.6913 14.3422V3.66561C52.6913 1.22187 53.9183 0 56.3721 0C58.832 0 60.0619 1.22187 60.0619 3.66561V6.01446H57.4963V3.66561C57.4963 2.88267 57.1246 2.48823 56.3812 2.4823H56.363C55.6257 2.4823 55.257 2.87674 55.257 3.66561V14.3422C55.257 15.131 55.6287 15.5255 56.3721 15.5255C57.1216 15.5255 57.4963 15.131 57.4963 14.3422V11.9933H60.0619V14.3422Z" fill="#A79A8B"/>
<path d="M62.1562 0.275811H64.7219V7.75829H66.9611V0.275811H69.5268V17.732H66.9611V10.2495H64.7219V17.732H62.1562V0.275811Z" fill="#A79A8B"/>
<path d="M71.893 0.275811H74.4587L76.8884 10.4007V0.275811H79.2636V17.732H76.698L74.359 7.92734V17.732H71.893V0.275811Z" fill="#A79A8B"/>
<path d="M88.8192 14.3422C88.8192 16.7859 87.5892 18.0107 85.1293 18.0167C82.6755 18.0167 81.4485 16.7918 81.4485 14.3422V3.66561C81.4485 1.22187 82.6755 0 85.1293 0C87.5892 0 88.8192 1.22187 88.8192 3.66561V14.3422ZM86.2535 3.66561C86.2535 2.88267 85.8818 2.48823 85.1384 2.4823H85.1202C84.3829 2.4823 84.0142 2.87674 84.0142 3.66561V14.3422C84.0142 15.131 84.3859 15.5255 85.1293 15.5255C85.8788 15.5255 86.2535 15.131 86.2535 14.3422V3.66561Z" fill="#A79A8B"/>
<path d="M91.0041 17.732V0.275811H93.5697V15.2497H97.6585V17.732H91.0041Z" fill="#A79A8B"/>
<path d="M106.389 14.3422C106.389 16.7859 105.159 18.0107 102.699 18.0167C100.245 18.0167 99.0184 16.7918 99.0184 14.3422V3.66561C99.0184 1.22187 100.245 0 102.699 0C105.159 0 106.389 1.22187 106.389 3.66561V14.3422ZM103.823 3.66561C103.823 2.88267 103.452 2.48823 102.708 2.4823H102.69C101.953 2.4823 101.584 2.87674 101.584 3.66561V14.3422C101.584 15.131 101.956 15.5255 102.699 15.5255C103.449 15.5255 103.823 15.131 103.823 14.3422V3.66561Z" fill="#A79A8B"/>
<path d="M115.763 14.3422C115.763 16.7859 114.533 18.0107 112.073 18.0167C109.619 18.0167 108.393 16.7918 108.393 14.3422V3.66561C108.393 1.22187 109.619 0 112.073 0C114.533 0 115.763 1.22187 115.763 3.66561V6.01446H113.198V3.66561C113.198 2.88267 112.826 2.48823 112.082 2.4823H112.064C111.327 2.4823 110.958 2.87674 110.958 3.66561V14.3422C110.958 15.131 111.33 15.5255 112.073 15.5255C112.823 15.5255 113.198 15.131 113.198 14.3422V10.2495H111.901V7.75829H115.763V14.3422Z" fill="#A79A8B"/>
<path d="M117.993 0.275811H120.559V17.732H117.993V0.275811Z" fill="#A79A8B"/>
<path d="M122.971 0.275811H129.625V2.75811H125.536V7.75829H129.054V10.2495H125.536V15.2497H129.625V17.732H122.971V0.275811Z" fill="#A79A8B"/>
<path d="M140.764 17.7305C137.678 17.7305 135.625 14.2192 135.625 8.86523C135.625 3.51123 137.662 0 140.98 0C143.589 0 145.425 2.58984 145.703 6.3501H143.388C143.11 4.43262 142.246 3.1626 140.919 3.1626C139.113 3.1626 137.986 5.50342 137.986 8.86523C137.986 12.227 139.067 14.5679 140.919 14.5679C142.153 14.5679 143.403 13.522 143.62 11.0815V10.8574H140.934V7.89404H145.765V17.7305H143.913V15.4893C143.342 16.7095 142.292 17.7305 140.764 17.7305Z" fill="#A79A8B"/>
<path d="M147.617 17.7305V0.149414H150.658L153.652 12.9492L156.553 0.149414H159.532V17.7305H157.325V5.90185L154.516 17.5811H152.633L149.824 5.90185V17.7305H147.617Z" fill="#A79A8B"/>
<path d="M161.378 17.5811V0.149414H165.483C167.983 0.149414 169.434 1.84277 169.434 4.75635C169.434 6.94775 168.631 8.19287 167.397 8.61621C168.832 8.91504 169.82 10.1353 169.82 12.6255C169.82 15.6636 168.338 17.5811 165.684 17.5811H161.378ZM165.545 3.08789H163.693V7.32129H165.545C166.532 7.32129 167.119 6.49951 167.119 5.20459C167.119 3.90967 166.548 3.08789 165.545 3.08789ZM165.699 10.21H163.693V14.6177H165.699C166.81 14.6177 167.443 13.7959 167.443 12.4512C167.443 11.0317 166.795 10.21 165.699 10.21Z" fill="#A79A8B"/>
<path d="M171.204 17.5811V0.149414H173.52V7.14697H177.81V0.149414H180.125V17.5811H177.81V10.3843H173.52V17.5811H171.204Z" fill="#A79A8B"/>
</svg>
