<svg width="130" height="55" viewBox="0 0 130 55" fill="none" xmlns="http://www.w3.org/2000/svg">
<path d="M0.374984 0.275811H7.02939V2.75811H2.94065V7.75829H6.45824V10.2495H2.94065V15.2497H7.02939V17.732H0.374984V0.275811Z" fill="#A79A8B"/>
<path d="M8.75193 3.66561C8.75193 1.22187 9.97885 0 12.4327 0C14.8926 0 16.1225 1.22187 16.1225 3.66561V6.01446H13.5569V3.66561C13.5569 2.88267 13.1852 2.48823 12.4418 2.4823H12.4236C11.6863 2.4823 11.3176 2.87674 11.3176 3.66561V5.2493C11.3176 6.02632 12.1184 6.97831 13.7201 8.10528C15.3217 9.22632 16.1225 10.5698 16.1225 12.1357V14.3422C16.1225 16.7918 14.8956 18.0167 12.4418 18.0167C9.98187 18.0107 8.75193 16.7859 8.75193 14.3422V11.9933H11.3176V14.3422C11.3176 15.131 11.6923 15.5255 12.4418 15.5255C13.1852 15.5255 13.5569 15.131 13.5569 14.3422V12.3492C13.5569 11.5069 12.7561 10.5223 11.1544 9.39536C9.55275 8.27433 8.75193 6.9101 8.75193 5.30269V3.66561Z" fill="#A79A8B"/>
<path d="M23.8921 12.2335L26.8748 0.275811H29.4404V17.732H26.9836V7.93623L24.7896 17.732H23.0489L20.7915 7.93623V17.732H18.3074V0.275811H20.8731L23.8921 12.2335Z" fill="#A79A8B"/>
<path d="M43.0484 0.275811V2.75811H40.646V17.732H38.0803V2.75811H35.6778V0.275811H43.0484Z" fill="#A79A8B"/>
<path d="M44.6894 0.275811H51.3438V2.75811H47.255V7.75829H50.7726V10.2495H47.255V15.2497H51.3438V17.732H44.6894V0.275811Z" fill="#A79A8B"/>
<path d="M60.4369 14.3422C60.4369 16.7859 59.207 18.0107 56.7471 18.0167C54.2932 18.0167 53.0663 16.7918 53.0663 14.3422V3.66561C53.0663 1.22187 54.2932 0 56.7471 0C59.207 0 60.4369 1.22187 60.4369 3.66561V6.01446H57.8713V3.66561C57.8713 2.88267 57.4996 2.48823 56.7562 2.4823H56.738C56.0007 2.4823 55.632 2.87674 55.632 3.66561V14.3422C55.632 15.131 56.0037 15.5255 56.7471 15.5255C57.4965 15.5255 57.8713 15.131 57.8713 14.3422V11.9933H60.4369V14.3422Z" fill="#A79A8B"/>
<path d="M62.5312 0.275811H65.0968V7.75829H67.3361V0.275811H69.9018V17.732H67.3361V10.2495H65.0968V17.732H62.5312V0.275811Z" fill="#A79A8B"/>
<path d="M72.268 0.275811H74.8337L77.2633 10.4007V0.275811H79.6386V17.732H77.073L74.7339 7.92734V17.732H72.268V0.275811Z" fill="#A79A8B"/>
<path d="M89.1941 14.3422C89.1941 16.7859 87.9642 18.0107 85.5043 18.0167C83.0504 18.0167 81.8235 16.7918 81.8235 14.3422V3.66561C81.8235 1.22187 83.0504 0 85.5043 0C87.9642 0 89.1941 1.22187 89.1941 3.66561V14.3422ZM86.6285 3.66561C86.6285 2.88267 86.2568 2.48823 85.5134 2.4823H85.4952C84.7579 2.4823 84.3892 2.87674 84.3892 3.66561V14.3422C84.3892 15.131 84.7609 15.5255 85.5043 15.5255C86.2538 15.5255 86.6285 15.131 86.6285 14.3422V3.66561Z" fill="#A79A8B"/>
<path d="M91.379 17.732V0.275811H93.9447V15.2497H98.0334V17.732H91.379Z" fill="#A79A8B"/>
<path d="M106.764 14.3422C106.764 16.7859 105.534 18.0107 103.074 18.0167C100.62 18.0167 99.3933 16.7918 99.3933 14.3422V3.66561C99.3933 1.22187 100.62 0 103.074 0C105.534 0 106.764 1.22187 106.764 3.66561V14.3422ZM104.198 3.66561C104.198 2.88267 103.827 2.48823 103.083 2.4823H103.065C102.328 2.4823 101.959 2.87674 101.959 3.66561V14.3422C101.959 15.131 102.331 15.5255 103.074 15.5255C103.824 15.5255 104.198 15.131 104.198 14.3422V3.66561Z" fill="#A79A8B"/>
<path d="M116.138 14.3422C116.138 16.7859 114.908 18.0107 112.448 18.0167C109.994 18.0167 108.768 16.7918 108.768 14.3422V3.66561C108.768 1.22187 109.994 0 112.448 0C114.908 0 116.138 1.22187 116.138 3.66561V6.01446H113.572V3.66561C113.572 2.88267 113.201 2.48823 112.457 2.4823H112.439C111.702 2.4823 111.333 2.87674 111.333 3.66561V14.3422C111.333 15.131 111.705 15.5255 112.448 15.5255C113.198 15.5255 113.572 15.131 113.572 14.3422V10.2495H112.276V7.75829H116.138V14.3422Z" fill="#A79A8B"/>
<path d="M118.368 0.275811H120.934V17.732H118.368V0.275811Z" fill="#A79A8B"/>
<path d="M123.346 0.275811H130V2.75811H125.911V7.75829H129.429V10.2495H125.911V15.2497H130V17.732H123.346V0.275811Z" fill="#A79A8B"/>
<path d="M14.9313 55C5.96357 55 0 48.6491 0 38.9652C0 29.2812 5.91873 22.9303 15.5591 22.9303C23.1368 22.9303 28.4727 27.6147 29.2798 34.4159H22.5539C21.7468 30.9477 19.2359 28.6506 15.3797 28.6506C10.1336 28.6506 6.86034 32.8845 6.86034 38.9652C6.86034 45.0458 9.99906 49.2797 15.3797 49.2797C18.9668 49.2797 22.5988 47.3879 23.2265 42.9739V42.5685H15.4246V37.2085H29.4591V55H24.0785V50.9462C22.4194 53.1533 19.3704 55 14.9313 55Z" fill="#A79A8B"/>
<path d="M34.8408 55V23.2006H43.6741L52.3728 46.352L60.8025 23.2006H69.4564V55H63.0445V33.6052L54.8838 54.7297H49.4135L41.2528 33.6052V55H34.8408Z" fill="#A79A8B"/>
<path d="M74.8192 54.7297V23.2006H86.7463C94.0102 23.2006 98.2251 26.2634 98.2251 31.5333C98.2251 35.4969 95.8935 37.749 92.3064 38.5147C96.4764 39.0552 99.3461 41.2623 99.3461 45.7665C99.3461 51.2615 95.0415 54.7297 87.3292 54.7297H74.8192ZM86.9257 28.5155H81.545V36.1726H86.9257C89.7954 36.1726 91.4993 34.6862 91.4993 32.344C91.4993 30.0019 89.8402 28.5155 86.9257 28.5155ZM87.3741 41.3974H81.545V49.3698H87.3741C90.6025 49.3698 92.4409 47.8834 92.4409 45.4512C92.4409 42.8838 90.5576 41.3974 87.3741 41.3974Z" fill="#A79A8B"/>
<path d="M103.369 54.7297V23.2006H110.095V35.8573H122.56V23.2006H129.286V54.7297H122.56V41.7127H110.095V54.7297H103.369Z" fill="#A79A8B"/>
</svg>
