<svg version="1.1" id="Calque_1" xmlns="http://www.w3.org/2000/svg" xmlns:xlink="http://www.w3.org/1999/xlink" x="0px"
	y="0px" viewBox="0 0 203.6 241.8" style="enable-background:new 0 0 203.6 241.8;" xml:space="preserve">
	<style type="text/css">
		.st0 {
			fill: #9D8255;
		}
	</style>
	<g>
		<g>
			<rect x="23.5" y="182.6" class="st0" width="152.8" height="1.9" />
		</g>
	</g>
	<g>
		<g>
			<path class="st0" d="M27.6,200.9c0.5,0.7,1,1.3,1.6,1.8c0.6,0.5,1.5,1.1,2.7,1.8c1.2,0.7,2.2,1.4,2.9,1.9c0.7,0.5,1.3,1.2,1.8,2
			c0.5,0.8,0.7,1.7,0.7,2.8c0,1.2-0.3,2.2-0.9,3.1s-1.4,1.7-2.6,2.2c-1.1,0.5-2.5,0.8-4,0.8c-1.9,0-3.6-0.4-5.1-1.3
			c-0.1-0.1-0.2-0.1-0.2-0.2s-0.1-0.2-0.1-0.4l-0.4-5c0-0.1,0-0.2,0.2-0.2c0.1,0,0.2,0,0.2,0.1c0.5,1.8,1.2,3.3,2.3,4.5
			c1,1.2,2.4,1.9,4.1,1.9c1.2,0,2.1-0.3,2.9-0.9c0.8-0.6,1.2-1.6,1.2-3c0-1.1-0.2-2-0.7-2.8s-1.1-1.4-1.7-2
			c-0.7-0.5-1.6-1.1-2.8-1.8c-1.2-0.7-2.1-1.4-2.7-1.8s-1.2-1.1-1.6-1.9c-0.5-0.8-0.7-1.6-0.7-2.7c0-1.2,0.3-2.2,1-3.1
			c0.6-0.8,1.5-1.5,2.5-1.9c1-0.4,2.2-0.6,3.3-0.6c1.5,0,2.9,0.3,4.3,0.8c0.4,0.2,0.5,0.4,0.5,0.6l0.2,4.3c0,0.1-0.1,0.1-0.2,0.2
			c-0.1,0-0.2,0-0.2-0.1c-0.2-1.3-0.8-2.5-1.6-3.6c-0.8-1.1-2-1.7-3.6-1.7c-1.3,0-2.2,0.4-2.9,1.1s-1,1.7-1,2.8
			C26.9,199.4,27.1,200.2,27.6,200.9z" />
		</g>
		<g>
			<path class="st0" d="M56.6,211.4c0.1,0,0.2,0.1,0.2,0.1c-0.2,1.6-0.3,3.1-0.3,4.8c0,0.2,0,0.3-0.1,0.4c-0.1,0.1-0.2,0.1-0.5,0.1
			H40.8c0,0-0.1-0.1-0.1-0.2s0-0.2,0.1-0.2c0.9,0,1.5-0.1,1.9-0.2c0.4-0.1,0.7-0.4,0.8-0.7c0.1-0.4,0.2-0.9,0.2-1.6v-16.6
			c0-0.7-0.1-1.2-0.2-1.6c-0.1-0.3-0.4-0.6-0.8-0.7s-1-0.2-1.9-0.2c0,0-0.1-0.1-0.1-0.2s0-0.2,0.1-0.2h14.5c0.2,0,0.3,0.1,0.3,0.3
			l0.1,4.5c0,0.1-0.1,0.1-0.2,0.1s-0.2,0-0.2-0.1c-0.1-1.3-0.6-2.3-1.3-3c-0.7-0.7-1.7-1-2.9-1h-2c-1.1,0-1.9,0.2-2.2,0.5
			s-0.5,0.9-0.5,1.8v7.3h4.1c1.2,0,2.1-0.2,2.6-0.6c0.5-0.4,0.8-1.1,0.8-2c0-0.1,0.1-0.1,0.2-0.1s0.2,0,0.2,0.1l0,3
			c0,0.7,0,1.2,0,1.6l0,1.8c0,0.1-0.1,0.1-0.2,0.1s-0.2,0-0.2-0.1c0-1.1-0.3-1.8-0.8-2.3c-0.5-0.5-1.4-0.7-2.7-0.7h-4v8.2
			c0,0.6,0.1,1.1,0.2,1.4c0.1,0.3,0.4,0.5,0.8,0.7s0.9,0.2,1.7,0.2h2.5c1.3,0,2.3-0.4,3.2-1.2c0.8-0.8,1.4-1.9,1.7-3.4
			C56.4,211.4,56.5,211.3,56.6,211.4z" />
		</g>
		<g>
			<path class="st0"
				d="M83.3,216.6c0,0.1,0,0.2-0.1,0.2h-4.9c-0.6,0-1.7-1-3.2-2.9c-1.6-1.9-3.5-4.7-5.8-8.1
			c-0.6,0.1-1.2,0.2-1.8,0.2c-0.1,0-0.7,0-1.7-0.1v8.1c0,0.7,0.1,1.3,0.2,1.6c0.1,0.3,0.4,0.6,0.8,0.7c0.4,0.1,1.1,0.2,1.9,0.2
			c0.1,0,0.1,0.1,0.1,0.2s0,0.2-0.1,0.2c-0.8,0-1.3,0-1.8,0l-2.5,0l-2.5,0c-0.5,0-1.1,0-1.8,0c0,0-0.1-0.1-0.1-0.2s0-0.2,0.1-0.2
			c0.9,0,1.5-0.1,1.9-0.2c0.4-0.1,0.7-0.4,0.8-0.7c0.2-0.4,0.2-0.9,0.2-1.6v-16.6c0-0.7-0.1-1.2-0.2-1.6c-0.1-0.3-0.4-0.6-0.8-0.7
			c-0.4-0.1-1-0.2-1.9-0.2c-0.1,0-0.1-0.1-0.1-0.2s0-0.2,0.1-0.2l1.8,0c1,0.1,1.8,0.1,2.5,0.1c0.5,0,1,0,1.4,0c0.4,0,0.8,0,1.2-0.1
			c0.9-0.1,1.7-0.1,2.5-0.1c1.9,0,3.4,0.4,4.5,1.3s1.6,2,1.6,3.4c0,1.3-0.4,2.5-1.1,3.5c-0.8,1.1-1.8,1.9-3,2.5c2,2.9,3.7,5.1,5,6.8
			s2.6,2.8,3.6,3.5c1.1,0.7,2.1,1.1,3.1,1.1C83.3,216.4,83.3,216.4,83.3,216.6z M67.9,205.1c1.8,0,3.1-0.4,3.8-1.2s1.2-2.1,1.2-3.7
			c0-1.9-0.4-3.2-1.2-4s-1.9-1.2-3.4-1.2c-0.9,0-1.6,0.2-1.9,0.5c-0.4,0.4-0.6,1-0.6,2v7.6C66.4,205,67.1,205.1,67.9,205.1z" />
		</g>
		<g>
			<path class="st0" d="M104.4,194.6c0,0.1,0,0.2-0.1,0.2c-1.7,0-2.9,1-3.8,3.1l-7.4,18.8c0,0.1-0.2,0.1-0.4,0.1
			c-0.2,0-0.3-0.1-0.4-0.1l-8.9-19.4c-0.4-0.9-0.9-1.6-1.3-1.9c-0.4-0.4-1-0.6-1.7-0.6c-0.1,0-0.1-0.1-0.1-0.2s0-0.2,0.1-0.2l1.2,0
			c0.7,0.1,1.2,0.1,1.7,0.1c1.2,0,2.3,0,3.4-0.1c0.4,0,0.9,0,1.5,0c0.1,0,0.1,0.1,0.1,0.2s0,0.2-0.1,0.2c-1.5,0-2.2,0.4-2.2,1.3
			c0,0.3,0.1,0.7,0.3,1.2l7.3,15.8l6.1-15.5c0.2-0.5,0.3-1,0.3-1.3c0-0.6-0.2-0.9-0.7-1.2c-0.4-0.3-1.1-0.4-2.1-0.4
			c-0.1,0-0.1-0.1-0.1-0.2s0-0.2,0.1-0.2l1.6,0c0.9,0.1,1.6,0.1,2.3,0.1c0.4,0,1,0,1.7-0.1l1.5,0
			C104.4,194.4,104.4,194.5,104.4,194.6z" />
		</g>
		<g>
			<path class="st0" d="M111.7,215.5c0.1,0.3,0.4,0.6,0.8,0.7c0.4,0.1,1.1,0.2,1.9,0.2c0.1,0,0.1,0.1,0.1,0.2s0,0.2-0.1,0.2
			c-0.7,0-1.3,0-1.8,0l-2.6,0l-2.5,0c-0.4,0-1.1,0-1.8,0c-0.1,0-0.1-0.1-0.1-0.2s0-0.2,0.1-0.2c0.9,0,1.5-0.1,1.9-0.2
			c0.4-0.1,0.7-0.4,0.8-0.7c0.2-0.4,0.2-0.9,0.2-1.6v-16.6c0-0.7-0.1-1.2-0.2-1.6c-0.2-0.3-0.4-0.6-0.8-0.7
			c-0.4-0.1-1.1-0.2-1.9-0.2c-0.1,0-0.1-0.1-0.1-0.2s0-0.2,0.1-0.2l1.8,0c1,0.1,1.8,0.1,2.5,0.1c0.7,0,1.6,0,2.6-0.1l1.7,0
			c0.1,0,0.1,0.1,0.1,0.2s0,0.2-0.1,0.2c-0.9,0-1.5,0.1-1.9,0.2c-0.4,0.1-0.7,0.4-0.8,0.7c-0.1,0.4-0.2,0.9-0.2,1.6v16.5
			C111.5,214.6,111.6,215.2,111.7,215.5z" />
		</g>
		<g>
			<path class="st0" d="M134.7,194.4c1,0.2,2.1,0.5,3.1,1c0.2,0.1,0.3,0.2,0.3,0.3c0,0.1,0.1,0.3,0.1,0.6l0.5,4.4
			c0,0.1-0.1,0.1-0.2,0.1c-0.1,0-0.2,0-0.2-0.1c-1.2-4-3.6-6-7.4-6c-1.9,0-3.6,0.4-5.1,1.3s-2.6,2.1-3.4,3.8s-1.2,3.5-1.2,5.7
			c0,2.1,0.4,4,1.3,5.7s2.1,3.1,3.6,4s3.2,1.5,5,1.5c1.9,0,3.4-0.5,4.6-1.4c1.2-0.9,2.2-2.4,2.9-4.4c0-0.1,0.1-0.1,0.2-0.1
			c0.1,0,0.2,0.1,0.2,0.1l-0.4,4c-0.1,0.3-0.1,0.5-0.1,0.6c0,0.1-0.1,0.2-0.3,0.3c-1.2,0.6-2.4,1-3.5,1.2c-1.1,0.2-2.3,0.3-3.7,0.3
			c-2.5,0-4.7-0.5-6.7-1.5c-2-1-3.5-2.4-4.6-4.2s-1.7-3.8-1.7-6.1c0-2.2,0.6-4.2,1.7-6c1.1-1.7,2.7-3.1,4.7-4.1s4.2-1.4,6.7-1.4
			C132.4,194,133.6,194.1,134.7,194.4z" />
		</g>
		<g>
			<path class="st0" d="M158,211.4c0.1,0,0.2,0.1,0.2,0.1c-0.2,1.6-0.3,3.1-0.3,4.8c0,0.2,0,0.3-0.1,0.4c-0.1,0.1-0.2,0.1-0.4,0.1
			h-15.2c-0.1,0-0.1-0.1-0.1-0.2s0-0.2,0.1-0.2c0.9,0,1.5-0.1,1.9-0.2c0.4-0.1,0.7-0.4,0.8-0.7c0.1-0.4,0.2-0.9,0.2-1.6v-16.6
			c0-0.7-0.1-1.2-0.2-1.6c-0.1-0.3-0.4-0.6-0.8-0.7s-1.1-0.2-1.9-0.2c-0.1,0-0.1-0.1-0.1-0.2s0-0.2,0.1-0.2h14.5
			c0.2,0,0.3,0.1,0.3,0.3l0.1,4.5c0,0.1-0.1,0.1-0.2,0.1c-0.1,0-0.2,0-0.2-0.1c-0.1-1.3-0.6-2.3-1.3-3s-1.7-1-2.9-1h-2
			c-1.1,0-1.9,0.2-2.2,0.5s-0.5,0.9-0.5,1.8v7.3h4.1c1.2,0,2.1-0.2,2.6-0.6c0.5-0.4,0.8-1.1,0.8-2c0-0.1,0.1-0.1,0.2-0.1
			s0.2,0,0.2,0.1l0,3c0,0.7,0,1.2,0,1.6l0,1.8c0,0.1-0.1,0.1-0.2,0.1s-0.2,0-0.2-0.1c0-1.1-0.3-1.8-0.8-2.3
			c-0.6-0.5-1.4-0.7-2.7-0.7h-4.1v8.2c0,0.6,0.1,1.1,0.2,1.4c0.1,0.3,0.4,0.5,0.8,0.7s0.9,0.2,1.6,0.2h2.5c1.3,0,2.3-0.4,3.1-1.2
			c0.8-0.8,1.4-1.9,1.7-3.4C157.8,211.4,157.9,211.3,158,211.4z" />
		</g>
		<g>
			<path class="st0" d="M166.1,200.9c0.4,0.7,1,1.3,1.6,1.8c0.6,0.5,1.6,1.1,2.7,1.8c1.2,0.7,2.2,1.4,2.9,1.9c0.7,0.5,1.3,1.2,1.8,2
			c0.5,0.8,0.7,1.7,0.7,2.8c0,1.2-0.3,2.2-0.9,3.1c-0.6,0.9-1.4,1.7-2.6,2.2c-1.1,0.5-2.4,0.8-4,0.8c-1.9,0-3.6-0.4-5.1-1.3
			c-0.1-0.1-0.2-0.1-0.2-0.2s-0.1-0.2-0.1-0.4l-0.4-5c0-0.1,0-0.2,0.2-0.2c0.1,0,0.2,0,0.2,0.1c0.5,1.8,1.2,3.3,2.3,4.5
			c1,1.2,2.4,1.9,4.1,1.9c1.2,0,2.1-0.3,2.9-0.9c0.8-0.6,1.2-1.6,1.2-3c0-1.1-0.2-2-0.7-2.8s-1.1-1.4-1.7-2
			c-0.7-0.5-1.6-1.1-2.8-1.8c-1.2-0.7-2.1-1.4-2.7-1.8s-1.2-1.1-1.6-1.9s-0.7-1.6-0.7-2.7c0-1.2,0.3-2.2,1-3.1
			c0.6-0.8,1.5-1.5,2.5-1.9c1.1-0.4,2.2-0.6,3.3-0.6c1.5,0,2.9,0.3,4.3,0.8c0.4,0.2,0.5,0.4,0.5,0.6l0.2,4.3c0,0.1-0.1,0.1-0.2,0.2
			c-0.1,0-0.2,0-0.2-0.1c-0.2-1.3-0.8-2.5-1.6-3.6c-0.8-1.1-2-1.7-3.6-1.7c-1.3,0-2.2,0.4-2.9,1.1c-0.7,0.7-1,1.7-1,2.8
			C165.4,199.4,165.6,200.2,166.1,200.9z" />
		</g>
	</g>
	<g>
		<g>
			<path class="st0" d="M34.9,167.2c0,1.3,0.1,2.2,0.4,2.8c0.2,0.6,0.7,1,1.5,1.2s1.8,0.3,3.4,0.3h6.6c2.8,0,5-0.8,6.8-2.5
			s2.9-4,3.5-6.9c0-0.1,0.1-0.2,0.4-0.2c0.2,0,0.4,0.1,0.4,0.2c-0.4,3.9-0.6,7.2-0.6,9.8c0,0.4-0.1,0.6-0.2,0.8
			c-0.1,0.2-0.4,0.2-0.8,0.2h-32c-0.1,0-0.1-0.1-0.1-0.4s0-0.4,0.1-0.4c1.7,0,2.9-0.1,3.7-0.3c0.8-0.2,1.3-0.7,1.6-1.4
			c0.3-0.7,0.4-1.7,0.4-3.1v-31.9c0-1.4-0.1-2.4-0.4-3c-0.3-0.6-0.8-1.1-1.6-1.4c-0.8-0.2-2-0.4-3.7-0.4c-0.1,0-0.1-0.1-0.1-0.4
			s0-0.4,0.1-0.4l3.5,0.1c1.9,0.1,3.5,0.1,4.8,0.1c1.3,0,3-0.1,4.9-0.1l3.4-0.1c0.1,0,0.1,0.1,0.1,0.4s0,0.4-0.1,0.4
			c-1.7,0-2.9,0.1-3.7,0.4c-0.8,0.2-1.3,0.7-1.6,1.4c-0.3,0.7-0.4,1.7-0.4,3.1C34.9,135.6,34.9,167.2,34.9,167.2z" />
		</g>
		<g>
			<path class="st0" d="M115.6,172.7c0,0.3-0.1,0.4-0.2,0.4h-9.4c-1.1,0-3.2-1.9-6.2-5.6c-3.1-3.8-6.8-9-11.2-15.7
			c-1.2,0.2-2.4,0.3-3.4,0.3c-0.2,0-1.3-0.1-3.2-0.2v15.6c0,1.4,0.1,2.5,0.4,3.1c0.3,0.6,0.8,1.1,1.6,1.3c0.8,0.2,2,0.3,3.7,0.3
			c0.1,0,0.2,0.1,0.2,0.4s-0.1,0.4-0.2,0.4c-1.5,0-2.6,0-3.4-0.1l-4.9-0.1l-4.8,0.1c-0.9,0.1-2.1,0.1-3.5,0.1
			c-0.1,0-0.1-0.1-0.1-0.4s0-0.4,0.1-0.4c1.7,0,2.9-0.1,3.7-0.3c0.8-0.2,1.3-0.7,1.6-1.4c0.3-0.7,0.4-1.7,0.4-3.1v-31.9
			c0-1.4-0.1-2.4-0.4-3c-0.3-0.6-0.8-1.1-1.6-1.4c-0.8-0.2-2-0.4-3.7-0.4c-0.1,0-0.2-0.1-0.2-0.4s0.1-0.4,0.2-0.4l3.4,0.1
			c1.9,0.1,3.5,0.1,4.8,0.1c1,0,1.9,0,2.8-0.1c0.9-0.1,1.6-0.1,2.3-0.1c1.7-0.1,3.3-0.2,4.8-0.2c3.7,0,6.5,0.8,8.6,2.4
			c2.1,1.6,3.1,3.8,3.1,6.6c0,2.5-0.7,4.7-2.2,6.8c-1.4,2-3.4,3.6-5.8,4.8c3.9,5.6,7.1,9.9,9.7,13c2.6,3.1,4.9,5.4,7,6.8
			c2,1.4,4,2.1,6,2.1C115.5,172.3,115.6,172.4,115.6,172.7z M85.8,150.5c3.4,0,5.9-0.8,7.4-2.3c1.5-1.5,2.2-3.9,2.2-7.2
			c0-3.6-0.8-6.2-2.3-7.8c-1.5-1.5-3.7-2.3-6.6-2.3c-1.8,0-3.1,0.3-3.8,1c-0.7,0.7-1.1,1.9-1.1,3.8v14.6
			C83,150.4,84.4,150.5,85.8,150.5z" />
		</g>
		<g>
			<path class="st0" d="M175.8,172.7c0,0.3-0.1,0.4-0.2,0.4c-1.5,0-2.6,0-3.5-0.1l-4.8-0.1l-4.6,0.1c-0.7,0.1-1.8,0.1-3.1,0.1
			c-0.1,0-0.1-0.1-0.1-0.4s0.1-0.4,0.1-0.4c1.6,0,2.7-0.1,3.4-0.4c0.7-0.2,1.2-0.7,1.5-1.4c0.2-0.6,0.3-1.6,0.2-3l-1.3-30.7
			L148,172.6c-0.1,0.2-0.3,0.3-0.6,0.3c-0.2,0-0.4-0.1-0.6-0.3l-17-35.7l-0.6,28.4c-0.1,2.4,0.4,4.2,1.3,5.3
			c0.9,1.1,2.4,1.6,4.5,1.6c0.1,0,0.1,0.1,0.1,0.4s-0.1,0.4-0.1,0.4c-1.3,0-2.3,0-3-0.1l-3.7-0.1l-3.7,0.1c-0.7,0.1-1.6,0.1-2.8,0.1
			c-0.1,0-0.2-0.1-0.2-0.4s0.1-0.4,0.2-0.4c1.9,0,3.3-0.6,4.2-1.6s1.4-2.9,1.4-5.2l0.6-31.4c-1.4-2.1-3.3-3.2-5.8-3.2
			c-0.1,0-0.2-0.1-0.2-0.4s0.1-0.4,0.2-0.4l2.7,0.1c0.5,0.1,1.2,0.1,2,0.1c0.9,0,1.7,0,2.3-0.1c0.6,0,1.1-0.1,1.5-0.1
			c0.6,0,1.1,0.2,1.4,0.6c0.4,0.4,0.9,1.4,1.7,3l15.4,31.7l14.6-33.6c0.5-1.1,1.2-1.7,2.1-1.7c0.2,0,0.6,0,1,0.1
			c0.5,0.1,1.1,0.1,1.8,0.1l3.4-0.1c0.5,0,1.3-0.1,2.3-0.1c0.1,0,0.1,0.1,0.1,0.4s-0.1,0.4-0.1,0.4c-2.3,0-3.9,0.4-4.9,1.1
			c-1,0.7-1.5,2-1.4,3.8l1.4,31.8c0.1,1.4,0.3,2.5,0.6,3.1c0.3,0.6,0.8,1.1,1.6,1.3c0.8,0.2,2,0.3,3.7,0.3
			C175.7,172.3,175.8,172.4,175.8,172.7z" />
		</g>
	</g>
	<path class="st0" d="M177.7,79.2c-1.5-22.6-16-42.9-36.9-51.6c-12.8-5.3-26.8-5.5-40.2-2.9C87,27.2,74.2,32.8,63.1,40.9
	c-21.7,15.8-35.9,40.9-37.7,67.7c-0.2,3.3-0.2,6.6-0.1,9.9c0,0.3,0.2,0.5,0.5,0.5c0.3,0,0.5-0.1,0.5-0.5
	C27.5,95.3,37,73.1,53.6,56.7c16.6-16.4,39.6-26.3,63.1-26c12,0.1,23.6,3.8,33.1,11.3c8.1,6.4,14.4,15.1,17.7,24.9
	c2.8,8.6,4,18.5,1.1,27.2c-2.2,6.6-6.6,12.3-12.4,16.2c-7.1,4.9-17.4,7.6-25.7,3.9c-5.4-2.4-9.3-7.3-10.8-13c-1.4-5.8,0.2-12,5.8-15
	c1.7-0.9,3.5-1.3,5.4-1.4c3.8,0.1,7.1,3,7.3,6.8c0.1,1.8-0.7,3.4-2.2,4.4c-1.9,1.3-4.8,1.1-5.1-1.7c-0.1-0.6-1-0.7-1,0
	c0,3.2,2.9,4.6,5.7,3.7c2.6-0.8,4.6-3.2,4.8-6c0.2-3.2-1.2-6.3-3.7-8.3c-1.8-1.4-3.8-2-6-2.2c0,0-0.1,0-0.1,0c-0.1,0-0.2,0-0.2,0
	c-0.3,0-0.6,0-0.8,0c-0.1,0-0.2,0-0.3,0.1c-5.4,0.4-10.3,3.6-12.9,8.5c-2.9,5.5-2.1,12.1,0.3,17.6c2.4,5.5,7.1,10.1,12.6,12.4
	c4.3,1.9,9.1,2.4,13.7,1.9c10.6-1.2,20.3-6.4,26.8-14.9c1.9-2.5,3.5-5.1,4.7-7.9C177.2,92.7,178.1,86,177.7,79.2z" />
</svg>