<svg width="455" height="250" viewBox="0 0 455 250" fill="none" xmlns="http://www.w3.org/2000/svg">
<mask id="path-1-outside-1_2383_19" maskUnits="userSpaceOnUse" x="-0.680786" y="-0.71875" width="456" height="251" fill="black">
<rect fill="white" x="-0.680786" y="-0.71875" width="456" height="251"/>
<path d="M3.46375 99.2812V2.08124H26.9837C32.7437 2.08124 37.1437 3.16124 40.1837 5.32124C43.3037 7.40125 45.4237 10.2812 46.5437 13.9612C47.7437 17.5612 48.3437 21.6012 48.3437 26.0812C48.3437 29.6812 47.9437 33.1212 47.1437 36.4012C46.4237 39.6812 45.0237 42.4812 42.9437 44.8012C40.9437 47.0412 37.9837 48.4812 34.0637 49.1212L49.6637 99.2812H43.1837L28.0637 50.3212H9.94375V99.2812H3.46375ZM9.94375 45.2812H26.7437C30.9037 45.2812 34.0637 44.5212 36.2237 43.0012C38.3837 41.4012 39.8637 39.1612 40.6637 36.2812C41.5437 33.4012 41.9837 30.0012 41.9837 26.0812C41.9837 19.9212 40.9437 15.2412 38.8637 12.0412C36.8637 8.84125 32.7837 7.24125 26.6237 7.24125H9.94375V45.2812ZM64.2812 99.2812V2.08124H97.8812V7.36125H70.8812V46.3612H93.0812V51.4012H70.8812V94.1212H98.2412V99.2812H64.2812ZM130.951 100.481C125.831 100.481 121.591 99.4413 118.231 97.3612C114.951 95.2812 112.431 92.3612 110.671 88.6012C108.991 84.8412 107.951 80.4012 107.551 75.2812L113.191 73.4812C113.751 77.7212 114.591 81.4812 115.711 84.7612C116.911 88.0412 118.711 90.6012 121.111 92.4412C123.511 94.2012 126.831 95.0812 131.071 95.0812C135.871 95.0812 139.631 93.8812 142.351 91.4812C145.151 89.0812 146.551 85.0812 146.551 79.4812C146.551 75.2412 145.431 71.4412 143.191 68.0812C141.031 64.6412 137.951 60.9612 133.951 57.0412L116.191 39.4012C113.231 36.3612 111.071 33.3212 109.711 30.2812C108.351 27.2412 107.671 24.1212 107.671 20.9212C107.671 14.5212 109.631 9.60125 113.551 6.16125C117.551 2.72124 122.711 1.00124 129.031 1.00124C132.311 1.00124 135.271 1.44124 137.911 2.32125C140.551 3.12125 142.831 4.48125 144.751 6.40124C146.751 8.24124 148.311 10.7212 149.431 13.8412C150.551 16.9612 151.271 20.8012 151.591 25.3612L146.071 26.6812C145.751 22.1212 144.991 18.3212 143.791 15.2812C142.591 12.2412 140.831 10.0012 138.511 8.56124C136.191 7.04125 133.071 6.28125 129.151 6.28125C124.751 6.28125 121.071 7.40125 118.111 9.64125C115.151 11.8812 113.671 15.4812 113.671 20.4412C113.671 22.9212 114.151 25.3212 115.111 27.6412C116.151 29.9612 118.031 32.4812 120.751 35.2012L138.271 52.4812C142.191 56.3212 145.551 60.4412 148.351 64.8412C151.231 69.1612 152.671 73.9212 152.671 79.1212C152.671 84.0012 151.751 88.0412 149.911 91.2412C148.071 94.3612 145.511 96.6812 142.231 98.2012C138.951 99.7213 135.191 100.481 130.951 100.481ZM165.888 99.2812V2.08124H172.368V99.2812H165.888ZM190.495 99.2812V2.08124H211.735C218.215 2.08124 223.255 3.32124 226.855 5.80124C230.455 8.28125 232.975 11.6412 234.415 15.8812C235.855 20.1212 236.575 24.8412 236.575 30.0412V70.3612C236.575 75.8812 235.855 80.8412 234.415 85.2412C232.975 89.5612 230.495 93.0012 226.975 95.5612C223.535 98.0412 218.655 99.2812 212.335 99.2812H190.495ZM196.975 94.1212H211.975C217.255 94.1212 221.175 93.0012 223.735 90.7612C226.295 88.5212 227.975 85.5612 228.775 81.8812C229.575 78.1212 229.975 74.0412 229.975 69.6412V30.5212C229.975 25.8012 229.495 21.7212 228.535 18.2812C227.575 14.7612 225.775 12.0812 223.135 10.2412C220.495 8.32125 216.695 7.36125 211.735 7.36125H196.975V94.1212ZM252.367 99.2812V2.08124H285.967V7.36125H258.967V46.3612H281.167V51.4012H258.967V94.1212H286.327V99.2812H252.367ZM299.597 99.2812V2.08124H304.757L337.757 84.1612V2.08124H343.517V99.2812H338.357L305.357 17.0812V99.2812H299.597ZM382.954 100.601C376.554 100.601 371.634 99.2812 368.194 96.6412C364.834 94.0012 362.514 90.4812 361.234 86.0812C359.954 81.6012 359.314 76.6812 359.314 71.3212V30.0412C359.314 24.4412 359.994 19.4812 361.354 15.1612C362.714 10.7612 365.114 7.32124 368.554 4.84124C371.994 2.28124 376.794 1.00124 382.954 1.00124C388.634 1.00124 393.074 2.12124 396.274 4.36125C399.474 6.60125 401.754 9.80125 403.114 13.9612C404.474 18.0412 405.154 22.8412 405.154 28.3612V33.2812H398.914V28.3612C398.914 23.7212 398.474 19.8012 397.594 16.6012C396.714 13.3212 395.114 10.8012 392.794 9.04125C390.474 7.28124 387.194 6.40124 382.954 6.40124C378.314 6.40124 374.754 7.36124 372.274 9.28124C369.794 11.2012 368.114 13.8812 367.234 17.3212C366.354 20.7612 365.914 24.7612 365.914 29.3212V72.2812C365.914 77.0812 366.394 81.2012 367.354 84.6412C368.314 88.0012 370.034 90.6012 372.514 92.4412C374.994 94.2812 378.474 95.2012 382.954 95.2012C387.274 95.2012 390.594 94.2812 392.914 92.4412C395.234 90.6012 396.794 88.0412 397.594 84.7612C398.474 81.4012 398.914 77.5212 398.914 73.1212V67.2412H405.154V72.0412C405.154 77.5612 404.514 82.4812 403.234 86.8012C401.954 91.1212 399.714 94.5212 396.514 97.0012C393.314 99.4013 388.794 100.601 382.954 100.601ZM419.945 99.2812V2.08124H453.545V7.36125H426.545V46.3612H448.745V51.4012H426.545V94.1212H453.905V99.2812H419.945ZM0.999995 247.281V150.081H7.6V204.681L35.8 150.081H42.28L21.76 191.241L47.2 247.281H40.72L17.8 196.881L7.6 215.481V247.281H0.999995ZM56.3153 247.281V150.081H79.8353C85.5953 150.081 89.9953 151.161 93.0353 153.321C96.1553 155.401 98.2753 158.281 99.3953 161.961C100.595 165.561 101.195 169.601 101.195 174.081C101.195 177.681 100.795 181.121 99.9953 184.401C99.2753 187.681 97.8753 190.481 95.7953 192.801C93.7953 195.041 90.8353 196.481 86.9153 197.121L102.515 247.281H96.0353L80.9153 198.321H62.7953V247.281H56.3153ZM62.7953 193.281H79.5953C83.7553 193.281 86.9153 192.521 89.0753 191.001C91.2353 189.401 92.7153 187.161 93.5153 184.281C94.3953 181.401 94.8353 178.001 94.8353 174.081C94.8353 167.921 93.7953 163.241 91.7153 160.041C89.7153 156.841 85.6353 155.241 79.4753 155.241H62.7953V193.281ZM117.133 247.281V150.081H150.733V155.361H123.733V194.361H145.933V199.401H123.733V242.121H151.093V247.281H117.133ZM187.402 248.601C181.082 248.601 176.162 247.561 172.642 245.481C169.122 243.321 166.642 240.441 165.202 236.841C163.842 233.161 163.162 229.041 163.162 224.481V150.081H169.642V224.601C169.642 228.121 170.122 231.321 171.082 234.201C172.122 237.001 173.922 239.201 176.482 240.801C179.122 242.401 182.762 243.201 187.402 243.201C191.802 243.201 195.282 242.401 197.842 240.801C200.482 239.121 202.362 236.881 203.482 234.081C204.602 231.281 205.162 228.121 205.162 224.601V150.081H211.522V224.481C211.522 229.041 210.762 233.161 209.242 236.841C207.722 240.441 205.202 243.321 201.682 245.481C198.242 247.561 193.482 248.601 187.402 248.601ZM223.067 247.281V242.121L257.987 155.241H226.187V150.081H265.067V154.161L229.787 242.121H265.187V247.281H223.067ZM288.511 247.281L271.591 150.081H277.351L291.631 234.441L307.231 152.241H313.471L329.551 234.441L342.511 150.081H348.151L332.431 247.281H326.911L310.351 162.201L294.151 247.281H288.511ZM361.117 247.281V150.081H394.717V155.361H367.717V194.361H389.917V199.401H367.717V242.121H395.077V247.281H361.117ZM429.587 248.601C423.427 248.601 418.667 247.361 415.307 244.881C411.947 242.321 409.587 238.801 408.227 234.321C406.947 229.841 406.307 224.761 406.307 219.081V177.801C406.307 172.121 406.947 167.121 408.227 162.801C409.587 158.481 411.987 155.121 415.427 152.721C418.867 150.241 423.707 149.001 429.947 149.001C435.627 149.001 440.067 150.121 443.267 152.361C446.547 154.601 448.867 157.801 450.227 161.961C451.667 166.121 452.387 171.041 452.387 176.721V180.081H446.147V176.361C446.147 171.561 445.667 167.561 444.707 164.361C443.747 161.081 442.107 158.601 439.787 156.921C437.467 155.241 434.187 154.401 429.947 154.401C425.227 154.401 421.627 155.401 419.147 157.401C416.667 159.321 414.987 162.041 414.107 165.561C413.307 169.001 412.907 173.001 412.907 177.561V219.921C412.907 224.641 413.387 228.761 414.347 232.281C415.307 235.721 417.027 238.401 419.507 240.321C421.987 242.241 425.507 243.201 430.067 243.201C434.387 243.201 437.707 242.281 440.027 240.441C442.427 238.601 444.067 235.961 444.947 232.521C445.907 229.081 446.387 225.001 446.387 220.281V206.001H430.907V200.961H452.507V247.281H448.307L447.347 236.361C446.147 240.121 444.147 243.121 441.347 245.361C438.627 247.521 434.707 248.601 429.587 248.601Z"/>
</mask>
<path d="M3.46375 99.2812V2.08124H26.9837C32.7437 2.08124 37.1437 3.16124 40.1837 5.32124C43.3037 7.40125 45.4237 10.2812 46.5437 13.9612C47.7437 17.5612 48.3437 21.6012 48.3437 26.0812C48.3437 29.6812 47.9437 33.1212 47.1437 36.4012C46.4237 39.6812 45.0237 42.4812 42.9437 44.8012C40.9437 47.0412 37.9837 48.4812 34.0637 49.1212L49.6637 99.2812H43.1837L28.0637 50.3212H9.94375V99.2812H3.46375ZM9.94375 45.2812H26.7437C30.9037 45.2812 34.0637 44.5212 36.2237 43.0012C38.3837 41.4012 39.8637 39.1612 40.6637 36.2812C41.5437 33.4012 41.9837 30.0012 41.9837 26.0812C41.9837 19.9212 40.9437 15.2412 38.8637 12.0412C36.8637 8.84125 32.7837 7.24125 26.6237 7.24125H9.94375V45.2812ZM64.2812 99.2812V2.08124H97.8812V7.36125H70.8812V46.3612H93.0812V51.4012H70.8812V94.1212H98.2412V99.2812H64.2812ZM130.951 100.481C125.831 100.481 121.591 99.4413 118.231 97.3612C114.951 95.2812 112.431 92.3612 110.671 88.6012C108.991 84.8412 107.951 80.4012 107.551 75.2812L113.191 73.4812C113.751 77.7212 114.591 81.4812 115.711 84.7612C116.911 88.0412 118.711 90.6012 121.111 92.4412C123.511 94.2012 126.831 95.0812 131.071 95.0812C135.871 95.0812 139.631 93.8812 142.351 91.4812C145.151 89.0812 146.551 85.0812 146.551 79.4812C146.551 75.2412 145.431 71.4412 143.191 68.0812C141.031 64.6412 137.951 60.9612 133.951 57.0412L116.191 39.4012C113.231 36.3612 111.071 33.3212 109.711 30.2812C108.351 27.2412 107.671 24.1212 107.671 20.9212C107.671 14.5212 109.631 9.60125 113.551 6.16125C117.551 2.72124 122.711 1.00124 129.031 1.00124C132.311 1.00124 135.271 1.44124 137.911 2.32125C140.551 3.12125 142.831 4.48125 144.751 6.40124C146.751 8.24124 148.311 10.7212 149.431 13.8412C150.551 16.9612 151.271 20.8012 151.591 25.3612L146.071 26.6812C145.751 22.1212 144.991 18.3212 143.791 15.2812C142.591 12.2412 140.831 10.0012 138.511 8.56124C136.191 7.04125 133.071 6.28125 129.151 6.28125C124.751 6.28125 121.071 7.40125 118.111 9.64125C115.151 11.8812 113.671 15.4812 113.671 20.4412C113.671 22.9212 114.151 25.3212 115.111 27.6412C116.151 29.9612 118.031 32.4812 120.751 35.2012L138.271 52.4812C142.191 56.3212 145.551 60.4412 148.351 64.8412C151.231 69.1612 152.671 73.9212 152.671 79.1212C152.671 84.0012 151.751 88.0412 149.911 91.2412C148.071 94.3612 145.511 96.6812 142.231 98.2012C138.951 99.7213 135.191 100.481 130.951 100.481ZM165.888 99.2812V2.08124H172.368V99.2812H165.888ZM190.495 99.2812V2.08124H211.735C218.215 2.08124 223.255 3.32124 226.855 5.80124C230.455 8.28125 232.975 11.6412 234.415 15.8812C235.855 20.1212 236.575 24.8412 236.575 30.0412V70.3612C236.575 75.8812 235.855 80.8412 234.415 85.2412C232.975 89.5612 230.495 93.0012 226.975 95.5612C223.535 98.0412 218.655 99.2812 212.335 99.2812H190.495ZM196.975 94.1212H211.975C217.255 94.1212 221.175 93.0012 223.735 90.7612C226.295 88.5212 227.975 85.5612 228.775 81.8812C229.575 78.1212 229.975 74.0412 229.975 69.6412V30.5212C229.975 25.8012 229.495 21.7212 228.535 18.2812C227.575 14.7612 225.775 12.0812 223.135 10.2412C220.495 8.32125 216.695 7.36125 211.735 7.36125H196.975V94.1212ZM252.367 99.2812V2.08124H285.967V7.36125H258.967V46.3612H281.167V51.4012H258.967V94.1212H286.327V99.2812H252.367ZM299.597 99.2812V2.08124H304.757L337.757 84.1612V2.08124H343.517V99.2812H338.357L305.357 17.0812V99.2812H299.597ZM382.954 100.601C376.554 100.601 371.634 99.2812 368.194 96.6412C364.834 94.0012 362.514 90.4812 361.234 86.0812C359.954 81.6012 359.314 76.6812 359.314 71.3212V30.0412C359.314 24.4412 359.994 19.4812 361.354 15.1612C362.714 10.7612 365.114 7.32124 368.554 4.84124C371.994 2.28124 376.794 1.00124 382.954 1.00124C388.634 1.00124 393.074 2.12124 396.274 4.36125C399.474 6.60125 401.754 9.80125 403.114 13.9612C404.474 18.0412 405.154 22.8412 405.154 28.3612V33.2812H398.914V28.3612C398.914 23.7212 398.474 19.8012 397.594 16.6012C396.714 13.3212 395.114 10.8012 392.794 9.04125C390.474 7.28124 387.194 6.40124 382.954 6.40124C378.314 6.40124 374.754 7.36124 372.274 9.28124C369.794 11.2012 368.114 13.8812 367.234 17.3212C366.354 20.7612 365.914 24.7612 365.914 29.3212V72.2812C365.914 77.0812 366.394 81.2012 367.354 84.6412C368.314 88.0012 370.034 90.6012 372.514 92.4412C374.994 94.2812 378.474 95.2012 382.954 95.2012C387.274 95.2012 390.594 94.2812 392.914 92.4412C395.234 90.6012 396.794 88.0412 397.594 84.7612C398.474 81.4012 398.914 77.5212 398.914 73.1212V67.2412H405.154V72.0412C405.154 77.5612 404.514 82.4812 403.234 86.8012C401.954 91.1212 399.714 94.5212 396.514 97.0012C393.314 99.4013 388.794 100.601 382.954 100.601ZM419.945 99.2812V2.08124H453.545V7.36125H426.545V46.3612H448.745V51.4012H426.545V94.1212H453.905V99.2812H419.945ZM0.999995 247.281V150.081H7.6V204.681L35.8 150.081H42.28L21.76 191.241L47.2 247.281H40.72L17.8 196.881L7.6 215.481V247.281H0.999995ZM56.3153 247.281V150.081H79.8353C85.5953 150.081 89.9953 151.161 93.0353 153.321C96.1553 155.401 98.2753 158.281 99.3953 161.961C100.595 165.561 101.195 169.601 101.195 174.081C101.195 177.681 100.795 181.121 99.9953 184.401C99.2753 187.681 97.8753 190.481 95.7953 192.801C93.7953 195.041 90.8353 196.481 86.9153 197.121L102.515 247.281H96.0353L80.9153 198.321H62.7953V247.281H56.3153ZM62.7953 193.281H79.5953C83.7553 193.281 86.9153 192.521 89.0753 191.001C91.2353 189.401 92.7153 187.161 93.5153 184.281C94.3953 181.401 94.8353 178.001 94.8353 174.081C94.8353 167.921 93.7953 163.241 91.7153 160.041C89.7153 156.841 85.6353 155.241 79.4753 155.241H62.7953V193.281ZM117.133 247.281V150.081H150.733V155.361H123.733V194.361H145.933V199.401H123.733V242.121H151.093V247.281H117.133ZM187.402 248.601C181.082 248.601 176.162 247.561 172.642 245.481C169.122 243.321 166.642 240.441 165.202 236.841C163.842 233.161 163.162 229.041 163.162 224.481V150.081H169.642V224.601C169.642 228.121 170.122 231.321 171.082 234.201C172.122 237.001 173.922 239.201 176.482 240.801C179.122 242.401 182.762 243.201 187.402 243.201C191.802 243.201 195.282 242.401 197.842 240.801C200.482 239.121 202.362 236.881 203.482 234.081C204.602 231.281 205.162 228.121 205.162 224.601V150.081H211.522V224.481C211.522 229.041 210.762 233.161 209.242 236.841C207.722 240.441 205.202 243.321 201.682 245.481C198.242 247.561 193.482 248.601 187.402 248.601ZM223.067 247.281V242.121L257.987 155.241H226.187V150.081H265.067V154.161L229.787 242.121H265.187V247.281H223.067ZM288.511 247.281L271.591 150.081H277.351L291.631 234.441L307.231 152.241H313.471L329.551 234.441L342.511 150.081H348.151L332.431 247.281H326.911L310.351 162.201L294.151 247.281H288.511ZM361.117 247.281V150.081H394.717V155.361H367.717V194.361H389.917V199.401H367.717V242.121H395.077V247.281H361.117ZM429.587 248.601C423.427 248.601 418.667 247.361 415.307 244.881C411.947 242.321 409.587 238.801 408.227 234.321C406.947 229.841 406.307 224.761 406.307 219.081V177.801C406.307 172.121 406.947 167.121 408.227 162.801C409.587 158.481 411.987 155.121 415.427 152.721C418.867 150.241 423.707 149.001 429.947 149.001C435.627 149.001 440.067 150.121 443.267 152.361C446.547 154.601 448.867 157.801 450.227 161.961C451.667 166.121 452.387 171.041 452.387 176.721V180.081H446.147V176.361C446.147 171.561 445.667 167.561 444.707 164.361C443.747 161.081 442.107 158.601 439.787 156.921C437.467 155.241 434.187 154.401 429.947 154.401C425.227 154.401 421.627 155.401 419.147 157.401C416.667 159.321 414.987 162.041 414.107 165.561C413.307 169.001 412.907 173.001 412.907 177.561V219.921C412.907 224.641 413.387 228.761 414.347 232.281C415.307 235.721 417.027 238.401 419.507 240.321C421.987 242.241 425.507 243.201 430.067 243.201C434.387 243.201 437.707 242.281 440.027 240.441C442.427 238.601 444.067 235.961 444.947 232.521C445.907 229.081 446.387 225.001 446.387 220.281V206.001H430.907V200.961H452.507V247.281H448.307L447.347 236.361C446.147 240.121 444.147 243.121 441.347 245.361C438.627 247.521 434.707 248.601 429.587 248.601Z" fill="black"/>
<path d="M3.46375 99.2812H2.46375V100.281H3.46375V99.2812ZM3.46375 2.08125V1.08125H2.46375V2.08125H3.46375ZM40.1837 5.32124L39.6045 6.13642L39.6167 6.14504L39.629 6.1533L40.1837 5.32124ZM46.5437 13.9613L45.5871 14.2524L45.5909 14.265L45.5951 14.2775L46.5437 13.9613ZM47.1437 36.4012L46.1722 36.1643L46.1695 36.1755L46.167 36.1868L47.1437 36.4012ZM42.9437 44.8012L42.1992 44.1337L42.1978 44.1352L42.9437 44.8012ZM34.0637 49.1212L33.9026 48.1343L32.7672 48.3197L33.1089 49.4182L34.0637 49.1212ZM49.6637 99.2812V100.281H51.022L50.6186 98.9843L49.6637 99.2812ZM43.1837 99.2812L42.2283 99.5763L42.446 100.281H43.1837V99.2812ZM28.0637 50.3212L29.0192 50.0262L28.8015 49.3212H28.0637V50.3212ZM9.94375 50.3212V49.3212H8.94375V50.3212H9.94375ZM9.94375 99.2812V100.281H10.9437V99.2812H9.94375ZM9.94375 45.2812H8.94375V46.2812H9.94375V45.2812ZM36.2237 43.0013L36.7992 43.8191L36.8092 43.812L36.819 43.8048L36.2237 43.0013ZM40.6637 36.2812L39.7074 35.989L39.7037 36.0013L39.7002 36.0136L40.6637 36.2812ZM38.8637 12.0412L38.0157 12.5712L38.0205 12.5788L38.0253 12.5862L38.8637 12.0412ZM9.94375 7.24125V6.24125H8.94375V7.24125H9.94375ZM3.46375 99.2812H4.46375V2.08125H3.46375H2.46375V99.2812H3.46375ZM3.46375 2.08125V3.08125H26.9837V2.08125V1.08125H3.46375V2.08125ZM26.9837 2.08125V3.08125C32.6417 3.08125 36.8032 4.14597 39.6045 6.13642L40.1837 5.32124L40.763 4.50607C37.4843 2.17651 32.8458 1.08125 26.9837 1.08125V2.08125ZM40.1837 5.32124L39.629 6.1533C42.5512 8.10137 44.5326 10.7876 45.5871 14.2524L46.5437 13.9613L47.5004 13.6701C46.3149 9.77493 44.0563 6.70112 40.7384 4.4892L40.1837 5.32124ZM46.5437 13.9613L45.5951 14.2775C46.7556 17.759 47.3438 21.6898 47.3438 26.0812H48.3438H49.3438C49.3438 21.5127 48.7319 17.3635 47.4924 13.645L46.5437 13.9613ZM48.3438 26.0812H47.3438C47.3438 29.6067 46.9521 32.9668 46.1722 36.1643L47.1437 36.4012L48.1153 36.6382C48.9354 33.2757 49.3438 29.7558 49.3438 26.0812H48.3438ZM47.1437 36.4012L46.167 36.1868C45.481 39.3118 44.1551 41.9521 42.1992 44.1337L42.9437 44.8012L43.6883 45.4688C45.8924 43.0104 47.3665 40.0507 48.1205 36.6156L47.1437 36.4012ZM42.9437 44.8012L42.1978 44.1352C40.3933 46.1563 37.67 47.5192 33.9026 48.1343L34.0637 49.1212L34.2249 50.1082C38.2975 49.4433 41.4942 47.9262 43.6897 45.4673L42.9437 44.8012ZM34.0637 49.1212L33.1089 49.4182L48.7089 99.5782L49.6637 99.2812L50.6186 98.9843L35.0186 48.8243L34.0637 49.1212ZM49.6637 99.2812V98.2812H43.1837V99.2812V100.281H49.6637V99.2812ZM43.1837 99.2812L44.1392 98.9862L29.0192 50.0262L28.0637 50.3212L27.1083 50.6163L42.2283 99.5763L43.1837 99.2812ZM28.0637 50.3212V49.3212H9.94375V50.3212V51.3212H28.0637V50.3212ZM9.94375 50.3212H8.94375V99.2812H9.94375H10.9437V50.3212H9.94375ZM9.94375 99.2812V98.2812H3.46375V99.2812V100.281H9.94375V99.2812ZM9.94375 45.2812V46.2812H26.7437V45.2812V44.2812H9.94375V45.2812ZM26.7437 45.2812V46.2812C31.0001 46.2812 34.3991 45.508 36.7992 43.8191L36.2237 43.0013L35.6483 42.1834C33.7284 43.5345 30.8074 44.2812 26.7437 44.2812V45.2812ZM36.2237 43.0013L36.819 43.8048C39.1781 42.0573 40.7747 39.6181 41.6273 36.5489L40.6637 36.2812L39.7002 36.0136C38.9528 38.7043 37.5894 40.7452 35.6285 42.1977L36.2237 43.0013ZM40.6637 36.2812L41.6201 36.5735C42.5362 33.5752 42.9837 30.0722 42.9837 26.0812H41.9837H40.9837C40.9837 29.9303 40.5513 33.2273 39.7074 35.989L40.6637 36.2812ZM41.9837 26.0812H42.9837C42.9837 19.8357 41.9341 14.93 39.7022 11.4963L38.8637 12.0412L38.0253 12.5862C39.9534 15.5525 40.9837 20.0068 40.9837 26.0812H41.9837ZM38.8637 12.0412L39.7117 11.5112C37.4351 7.86865 32.9033 6.24125 26.6237 6.24125V7.24125V8.24125C32.6642 8.24125 36.2924 9.81384 38.0157 12.5712L38.8637 12.0412ZM26.6237 7.24125V6.24125H9.94375V7.24125V8.24125H26.6237V7.24125ZM9.94375 7.24125H8.94375V45.2812H9.94375H10.9437V7.24125H9.94375ZM64.2812 99.2812H63.2812V100.281H64.2812V99.2812ZM64.2812 2.08125V1.08125H63.2812V2.08125H64.2812ZM97.8812 2.08125H98.8812V1.08125H97.8812V2.08125ZM97.8812 7.36124V8.36124H98.8812V7.36124H97.8812ZM70.8812 7.36124V6.36124H69.8812V7.36124H70.8812ZM70.8812 46.3613H69.8812V47.3613H70.8812V46.3613ZM93.0812 46.3613H94.0812V45.3613H93.0812V46.3613ZM93.0812 51.4012V52.4012H94.0812V51.4012H93.0812ZM70.8812 51.4012V50.4012H69.8812V51.4012H70.8812ZM70.8812 94.1212H69.8812V95.1212H70.8812V94.1212ZM98.2412 94.1212H99.2412V93.1212H98.2412V94.1212ZM98.2412 99.2812V100.281H99.2412V99.2812H98.2412ZM64.2812 99.2812H65.2812V2.08125H64.2812H63.2812V99.2812H64.2812ZM64.2812 2.08125V3.08125H97.8812V2.08125V1.08125H64.2812V2.08125ZM97.8812 2.08125H96.8812V7.36124H97.8812H98.8812V2.08125H97.8812ZM97.8812 7.36124V6.36124H70.8812V7.36124V8.36124H97.8812V7.36124ZM70.8812 7.36124H69.8812V46.3613H70.8812H71.8812V7.36124H70.8812ZM70.8812 46.3613V47.3613H93.0812V46.3613V45.3613H70.8812V46.3613ZM93.0812 46.3613H92.0812V51.4012H93.0812H94.0812V46.3613H93.0812ZM93.0812 51.4012V50.4012H70.8812V51.4012V52.4012H93.0812V51.4012ZM70.8812 51.4012H69.8812V94.1212H70.8812H71.8812V51.4012H70.8812ZM70.8812 94.1212V95.1212H98.2412V94.1212V93.1212H70.8812V94.1212ZM98.2412 94.1212H97.2412V99.2812H98.2412H99.2412V94.1212H98.2412ZM98.2412 99.2812V98.2812H64.2812V99.2812V100.281H98.2412V99.2812ZM118.231 97.3613L117.695 98.2058L117.704 98.2115L118.231 97.3613ZM110.671 88.6012L109.758 89.0092L109.761 89.0172L109.765 89.0252L110.671 88.6012ZM107.551 75.2812L107.247 74.3286L106.492 74.5694L106.554 75.3591L107.551 75.2812ZM113.191 73.4812L114.182 73.3503L114.025 72.1651L112.887 72.5286L113.191 73.4812ZM115.711 84.7612L114.764 85.0844L114.768 85.0947L114.771 85.1048L115.711 84.7612ZM121.111 92.4412L120.502 93.2349L120.511 93.2413L120.519 93.2477L121.111 92.4412ZM142.351 91.4812L141.7 90.722L141.694 90.7267L141.689 90.7314L142.351 91.4812ZM143.191 68.0812L142.344 68.613L142.351 68.6246L142.359 68.6359L143.191 68.0812ZM133.951 57.0412L133.246 57.7508L133.251 57.7555L133.951 57.0412ZM116.191 39.4012L115.474 40.0989L115.48 40.1049L115.486 40.1107L116.191 39.4012ZM109.711 30.2812L110.623 29.8729V29.8729L109.711 30.2812ZM113.551 6.16125L112.899 5.40302L112.891 5.40962L113.551 6.16125ZM137.911 2.32124L137.594 3.26993L137.607 3.27428L137.621 3.27827L137.911 2.32124ZM144.751 6.40125L144.044 7.10835L144.058 7.12308L144.074 7.13718L144.751 6.40125ZM149.431 13.8412L150.372 13.5034V13.5034L149.431 13.8412ZM151.591 25.3612L151.823 26.3338L152.647 26.1367L152.588 25.2912L151.591 25.3612ZM146.071 26.6812L145.073 26.7513L145.156 27.9282L146.303 27.6538L146.071 26.6812ZM143.791 15.2812L142.86 15.6484V15.6484L143.791 15.2812ZM138.511 8.56125L137.963 9.39771L137.973 9.40442L137.983 9.41089L138.511 8.56125ZM118.111 9.64124L118.714 10.4387V10.4387L118.111 9.64124ZM115.111 27.6413L114.187 28.0236L114.192 28.037L114.198 28.0503L115.111 27.6413ZM120.751 35.2012L120.044 35.9084L120.048 35.9132L120.751 35.2012ZM138.271 52.4812L137.568 53.1932L137.571 53.1956L138.271 52.4812ZM148.351 64.8412L147.507 65.3781L147.513 65.3871L147.519 65.396L148.351 64.8412ZM149.911 91.2412L150.772 91.7493L150.778 91.7397L149.911 91.2412ZM142.231 98.2012L142.651 99.1086V99.1086L142.231 98.2012ZM130.951 100.481V99.4812C125.963 99.4812 121.918 98.4681 118.757 96.511L118.231 97.3613L117.704 98.2115C121.263 100.414 125.699 101.481 130.951 101.481V100.481ZM118.231 97.3613L118.766 96.5167C115.658 94.5459 113.261 91.7771 111.576 88.1773L110.671 88.6012L109.765 89.0252C111.6 92.9454 114.243 96.0166 117.695 98.2058L118.231 97.3613ZM110.671 88.6012L111.584 88.1933C109.96 84.5599 108.941 80.2364 108.548 75.2034L107.551 75.2812L106.554 75.3591C106.96 80.5661 108.021 85.1226 109.758 89.0092L110.671 88.6012ZM107.551 75.2812L107.855 76.2339L113.495 74.4339L113.191 73.4812L112.887 72.5286L107.247 74.3286L107.551 75.2812ZM113.191 73.4812L112.199 73.6122C112.766 77.9031 113.619 81.7295 114.764 85.0844L115.711 84.7612L116.657 84.4381C115.563 81.233 114.735 77.5394 114.182 73.3503L113.191 73.4812ZM115.711 84.7612L114.771 85.1048C116.026 88.535 117.929 91.2623 120.502 93.2349L121.111 92.4412L121.719 91.6476C119.492 89.9402 117.795 87.5475 116.65 84.4177L115.711 84.7612ZM121.111 92.4412L120.519 93.2477C123.15 95.1768 126.705 96.0813 131.071 96.0813V95.0813V94.0813C126.956 94.0813 123.871 93.2257 121.702 91.6348L121.111 92.4412ZM131.071 95.0813V96.0813C136.034 96.0813 140.057 94.8384 143.012 92.2311L142.351 91.4812L141.689 90.7314C139.204 92.9241 135.707 94.0813 131.071 94.0813V95.0813ZM142.351 91.4812L143.001 92.2405C146.117 89.5697 147.551 85.2206 147.551 79.4812H146.551H145.551C145.551 84.9419 144.184 88.5928 141.7 90.722L142.351 91.4812ZM146.551 79.4812H147.551C147.551 75.0542 146.378 71.0593 144.023 67.5266L143.191 68.0812L142.359 68.6359C144.483 71.8232 145.551 75.4283 145.551 79.4812H146.551ZM143.191 68.0812L144.038 67.5495C141.824 64.0235 138.687 60.2828 134.651 56.327L133.951 57.0412L133.251 57.7555C137.214 61.6397 140.238 65.259 142.344 68.613L143.191 68.0812ZM133.951 57.0412L134.655 56.3317L116.895 38.6917L116.191 39.4012L115.486 40.1107L133.246 57.7507L133.951 57.0412ZM116.191 39.4012L116.907 38.7036C114.008 35.7258 111.924 32.7808 110.623 29.8729L109.711 30.2812L108.798 30.6896C110.217 33.8617 112.454 36.9967 115.474 40.0989L116.191 39.4012ZM109.711 30.2812L110.623 29.8729C109.319 26.956 108.671 23.9748 108.671 20.9212H107.671H106.671C106.671 24.2677 107.383 27.5265 108.798 30.6896L109.711 30.2812ZM107.671 20.9212H108.671C108.671 14.7381 110.555 10.1207 114.21 6.91287L113.551 6.16125L112.891 5.40962C108.706 9.08176 106.671 14.3044 106.671 20.9212H107.671ZM113.551 6.16125L114.203 6.91943C117.987 3.665 122.9 2.00124 129.031 2.00124V1.00124V0.00124359C122.521 0.00124359 117.114 1.77748 112.899 5.40306L113.551 6.16125ZM129.031 1.00124V2.00124C132.222 2.00124 135.073 2.42937 137.594 3.26993L137.911 2.32124L138.227 1.37257C135.469 0.453117 132.399 0.00124359 129.031 0.00124359V1.00124ZM137.911 2.32124L137.621 3.27827C140.106 4.03134 142.242 5.30663 144.044 7.10835L144.751 6.40125L145.458 5.69414C143.419 3.65587 140.995 2.21115 138.201 1.36422L137.911 2.32124ZM144.751 6.40125L144.074 7.13718C145.931 8.84626 147.412 11.1782 148.489 14.1791L149.431 13.8412L150.372 13.5034C149.209 10.2643 147.57 7.63623 145.428 5.66531L144.751 6.40125ZM149.431 13.8412L148.489 14.1791C149.569 17.1872 150.277 20.9308 150.593 25.4312L151.591 25.3612L152.588 25.2912C152.264 20.6717 151.532 16.7353 150.372 13.5034L149.431 13.8412ZM151.591 25.3612L151.358 24.3887L145.838 25.7087L146.071 26.6812L146.303 27.6538L151.823 26.3338L151.591 25.3612ZM146.071 26.6812L147.068 26.6112C146.744 21.9867 145.97 18.0786 144.721 14.9141L143.791 15.2812L142.86 15.6484C144.011 18.5639 144.758 22.2558 145.073 26.7513L146.071 26.6812ZM143.791 15.2812L144.721 14.9141C143.458 11.7146 141.574 9.28594 139.038 7.7116L138.511 8.56125L137.983 9.41089C140.087 10.7165 141.723 12.7679 142.86 15.6484L143.791 15.2812ZM138.511 8.56125L139.059 7.72478C136.521 6.06249 133.188 5.28124 129.151 5.28124V6.28124V7.28124C132.953 7.28124 135.86 8.02 137.963 9.39771L138.511 8.56125ZM129.151 6.28124V5.28124C124.575 5.28124 120.671 6.44925 117.507 8.84384L118.111 9.64124L118.714 10.4387C121.47 8.35324 124.927 7.28124 129.151 7.28124V6.28124ZM118.111 9.64124L117.507 8.84384C114.219 11.3324 112.671 15.2819 112.671 20.4412H113.671H114.671C114.671 15.6805 116.083 12.4301 118.714 10.4387L118.111 9.64124ZM113.671 20.4412H112.671C112.671 23.0541 113.177 25.5839 114.187 28.0236L115.111 27.6413L116.035 27.2589C115.124 25.0586 114.671 22.7884 114.671 20.4412H113.671ZM115.111 27.6413L114.198 28.0503C115.307 30.523 117.277 33.142 120.044 35.9084L120.751 35.2012L121.458 34.4941C118.784 31.8205 116.995 29.3995 116.023 27.2322L115.111 27.6413ZM120.751 35.2012L120.048 35.9132L137.568 53.1932L138.271 52.4812L138.973 51.7693L121.453 34.4893L120.751 35.2012ZM138.271 52.4812L137.571 53.1956C141.439 56.9849 144.75 61.0459 147.507 65.3781L148.351 64.8412L149.194 64.3044C146.351 59.8366 142.942 55.6576 138.97 51.7669L138.271 52.4812ZM148.351 64.8412L147.519 65.396C150.289 69.5514 151.671 74.1183 151.671 79.1212H152.671H153.671C153.671 73.7242 152.172 68.7711 149.183 64.2865L148.351 64.8412ZM152.671 79.1212H151.671C151.671 83.8809 150.773 87.7356 149.044 90.7428L149.911 91.2412L150.778 91.7397C152.728 88.3469 153.671 84.1216 153.671 79.1212H152.671ZM149.911 91.2412L149.049 90.7333C147.312 93.6789 144.906 95.8594 141.81 97.2939L142.231 98.2012L142.651 99.1086C146.116 97.5031 148.829 95.0436 150.772 91.7492L149.911 91.2412ZM142.231 98.2012L141.81 97.2939C138.683 98.7432 135.07 99.4812 130.951 99.4812V100.481V101.481C135.311 101.481 139.218 100.699 142.651 99.1086L142.231 98.2012ZM165.888 99.2812H164.888V100.281H165.888V99.2812ZM165.888 2.08125V1.08125H164.888V2.08125H165.888ZM172.368 2.08125H173.368V1.08125H172.368V2.08125ZM172.368 99.2812V100.281H173.368V99.2812H172.368ZM165.888 99.2812H166.888V2.08125H165.888H164.888V99.2812H165.888ZM165.888 2.08125V3.08125H172.368V2.08125V1.08125H165.888V2.08125ZM172.368 2.08125H171.368V99.2812H172.368H173.368V2.08125H172.368ZM172.368 99.2812V98.2812H165.888V99.2812V100.281H172.368V99.2812ZM190.495 99.2812H189.495V100.281H190.495V99.2812ZM190.495 2.08125V1.08125H189.495V2.08125H190.495ZM226.855 5.80125L227.422 4.97774V4.97774L226.855 5.80125ZM234.415 15.8812L235.362 15.5597V15.5597L234.415 15.8812ZM234.415 85.2412L235.364 85.5575L235.365 85.5523L234.415 85.2412ZM226.975 95.5612L227.56 96.3724L227.563 96.37L226.975 95.5612ZM196.975 94.1212H195.975V95.1212H196.975V94.1212ZM223.735 90.7612L224.393 91.5138H224.394L223.735 90.7612ZM228.775 81.8812L229.752 82.0937L229.753 82.0894L228.775 81.8812ZM228.535 18.2812L227.57 18.5444L227.572 18.55L228.535 18.2812ZM223.135 10.2412L222.547 11.05L222.555 11.0559L222.563 11.0616L223.135 10.2412ZM196.975 7.36124V6.36124H195.975V7.36124H196.975ZM190.495 99.2812H191.495V2.08125H190.495H189.495V99.2812H190.495ZM190.495 2.08125V3.08125H211.735V2.08125V1.08125H190.495V2.08125ZM211.735 2.08125V3.08125C218.105 3.08125 222.917 4.30286 226.288 6.62476L226.855 5.80125L227.422 4.97774C223.593 2.33963 218.325 1.08125 211.735 1.08125V2.08125ZM226.855 5.80125L226.288 6.62476C229.706 8.9795 232.096 12.1613 233.468 16.2028L234.415 15.8812L235.362 15.5597C233.854 11.1212 231.204 7.58299 227.422 4.97774L226.855 5.80125ZM234.415 15.8812L233.468 16.2028C234.868 20.3241 235.575 24.9333 235.575 30.0412H236.575H237.575C237.575 24.7491 236.842 19.9184 235.362 15.5597L234.415 15.8812ZM236.575 30.0412H235.575V70.3613H236.575H237.575V30.0412H236.575ZM236.575 70.3613H235.575C235.575 75.7953 234.866 80.6478 233.465 84.9302L234.415 85.2412L235.365 85.5523C236.844 81.0347 237.575 75.9672 237.575 70.3613H236.575ZM234.415 85.2412L233.466 84.925C232.089 89.057 229.73 92.321 226.387 94.7525L226.975 95.5612L227.563 96.37C231.26 93.6815 233.861 90.0655 235.364 85.5575L234.415 85.2412ZM226.975 95.5612L226.39 94.7501C223.185 97.0604 218.543 98.2812 212.335 98.2812V99.2812V100.281C218.767 100.281 223.885 99.0221 227.56 96.3724L226.975 95.5612ZM212.335 99.2812V98.2812H190.495V99.2812V100.281H212.335V99.2812ZM196.975 94.1212V95.1212H211.975V94.1212V93.1212H196.975V94.1212ZM211.975 94.1212V95.1212C217.369 95.1212 221.574 93.9811 224.393 91.5138L223.735 90.7612L223.076 90.0087C220.776 92.0214 217.141 93.1212 211.975 93.1212V94.1212ZM223.735 90.7612L224.394 91.5138C227.132 89.1175 228.912 85.9596 229.752 82.0937L228.775 81.8812L227.798 81.6688C227.038 85.1629 225.458 87.925 223.076 90.0087L223.735 90.7612ZM228.775 81.8812L229.753 82.0894C230.57 78.252 230.975 74.1014 230.975 69.6413H229.975H228.975C228.975 73.9811 228.58 77.9905 227.797 81.6731L228.775 81.8812ZM229.975 69.6413H230.975V30.5212H229.975H228.975V69.6413H229.975ZM229.975 30.5212H230.975C230.975 25.7377 230.489 21.5628 229.498 18.0125L228.535 18.2812L227.572 18.55C228.501 21.8797 228.975 25.8648 228.975 30.5212H229.975ZM228.535 18.2812L229.5 18.0181C228.487 14.3042 226.565 11.4127 223.707 9.42085L223.135 10.2412L222.563 11.0616C224.985 12.7498 226.663 15.2183 227.57 18.5444L228.535 18.2812ZM223.135 10.2412L223.723 9.43251C220.844 7.33872 216.803 6.36124 211.735 6.36124V7.36124V8.36124C216.587 8.36124 220.146 9.30377 222.547 11.05L223.135 10.2412ZM211.735 7.36124V6.36124H196.975V7.36124V8.36124H211.735V7.36124ZM196.975 7.36124H195.975V94.1212H196.975H197.975V7.36124H196.975ZM252.367 99.2812H251.367V100.281H252.367V99.2812ZM252.367 2.08125V1.08125H251.367V2.08125H252.367ZM285.967 2.08125H286.967V1.08125H285.967V2.08125ZM285.967 7.36124V8.36124H286.967V7.36124H285.967ZM258.967 7.36124V6.36124H257.967V7.36124H258.967ZM258.967 46.3613H257.967V47.3613H258.967V46.3613ZM281.167 46.3613H282.167V45.3613H281.167V46.3613ZM281.167 51.4012V52.4012H282.167V51.4012H281.167ZM258.967 51.4012V50.4012H257.967V51.4012H258.967ZM258.967 94.1212H257.967V95.1212H258.967V94.1212ZM286.327 94.1212H287.327V93.1212H286.327V94.1212ZM286.327 99.2812V100.281H287.327V99.2812H286.327ZM252.367 99.2812H253.367V2.08125H252.367H251.367V99.2812H252.367ZM252.367 2.08125V3.08125H285.967V2.08125V1.08125H252.367V2.08125ZM285.967 2.08125H284.967V7.36124H285.967H286.967V2.08125H285.967ZM285.967 7.36124V6.36124H258.967V7.36124V8.36124H285.967V7.36124ZM258.967 7.36124H257.967V46.3613H258.967H259.967V7.36124H258.967ZM258.967 46.3613V47.3613H281.167V46.3613V45.3613H258.967V46.3613ZM281.167 46.3613H280.167V51.4012H281.167H282.167V46.3613H281.167ZM281.167 51.4012V50.4012H258.967V51.4012V52.4012H281.167V51.4012ZM258.967 51.4012H257.967V94.1212H258.967H259.967V51.4012H258.967ZM258.967 94.1212V95.1212H286.327V94.1212V93.1212H258.967V94.1212ZM286.327 94.1212H285.327V99.2812H286.327H287.327V94.1212H286.327ZM286.327 99.2812V98.2812H252.367V99.2812V100.281H286.327V99.2812ZM299.597 99.2812H298.597V100.281H299.597V99.2812ZM299.597 2.08125V1.08125H298.597V2.08125H299.597ZM304.757 2.08125L305.684 1.70821L305.432 1.08125H304.757V2.08125ZM337.757 84.1612L336.829 84.5343L338.757 84.1612H337.757ZM337.757 2.08125V1.08125H336.757V2.08125H337.757ZM343.517 2.08125H344.517V1.08125H343.517V2.08125ZM343.517 99.2812V100.281H344.517V99.2812H343.517ZM338.357 99.2812L337.429 99.6538L337.68 100.281H338.357V99.2812ZM305.357 17.0812L306.285 16.7087L304.357 17.0812H305.357ZM305.357 99.2812V100.281H306.357V99.2812H305.357ZM299.597 99.2812H300.597V2.08125H299.597H298.597V99.2812H299.597ZM299.597 2.08125V3.08125H304.757V2.08125V1.08125H299.597V2.08125ZM304.757 2.08125L303.829 2.45427L336.829 84.5343L337.757 84.1612L338.684 83.7882L305.684 1.70821L304.757 2.08125ZM337.757 84.1612H338.757V2.08125H337.757H336.757V84.1612H337.757ZM337.757 2.08125V3.08125H343.517V2.08125V1.08125H337.757V2.08125ZM343.517 2.08125H342.517V99.2812H343.517H344.517V2.08125H343.517ZM343.517 99.2812V98.2812H338.357V99.2812V100.281H343.517V99.2812ZM338.357 99.2812L339.285 98.9087L306.285 16.7087L305.357 17.0812L304.429 17.4538L337.429 99.6538L338.357 99.2812ZM305.357 17.0812H304.357V99.2812H305.357H306.357V17.0812H305.357ZM305.357 99.2812V98.2812H299.597V99.2812V100.281H305.357V99.2812ZM368.194 96.6413L367.577 97.4276L367.586 97.4346L368.194 96.6413ZM361.234 86.0813L360.273 86.356L360.274 86.3606L361.234 86.0813ZM361.354 15.1612L362.308 15.4615L362.31 15.4566L361.354 15.1612ZM368.554 4.84124L369.139 5.65242L369.145 5.64799L369.151 5.64348L368.554 4.84124ZM396.274 4.36125L395.701 5.18048H395.701L396.274 4.36125ZM403.114 13.9613L402.164 14.272L402.166 14.2775L403.114 13.9613ZM405.154 33.2812V34.2812H406.154V33.2812H405.154ZM398.914 33.2812H397.914V34.2812H398.914V33.2812ZM397.594 16.6012L396.629 16.8604L396.63 16.8664L397.594 16.6012ZM392.794 9.04124L392.19 9.83794V9.83794L392.794 9.04124ZM372.274 9.28124L371.662 8.49052V8.49052L372.274 9.28124ZM367.354 84.6413L366.391 84.91L366.393 84.916L367.354 84.6413ZM392.914 92.4412L393.536 93.2247V93.2247L392.914 92.4412ZM397.594 84.7612L396.627 84.5079L396.625 84.5161L396.623 84.5243L397.594 84.7612ZM398.914 67.2412V66.2412H397.914V67.2412H398.914ZM405.154 67.2412H406.154V66.2412H405.154V67.2412ZM403.234 86.8012L404.193 87.0853V87.0853L403.234 86.8012ZM396.514 97.0013L397.114 97.8012L397.121 97.7965L397.127 97.7917L396.514 97.0013ZM382.954 100.601V99.6013C376.674 99.6013 372.003 98.3034 368.803 95.8479L368.194 96.6413L367.586 97.4346C371.266 100.259 376.435 101.601 382.954 101.601V100.601ZM368.194 96.6413L368.812 95.8549C365.629 93.3536 363.421 90.0167 362.195 85.8019L361.234 86.0813L360.274 86.3606C361.608 90.9458 364.04 94.6489 367.577 97.4276L368.194 96.6413ZM361.234 86.0813L362.196 85.8065C360.945 81.4281 360.314 76.602 360.314 71.3213H359.314H358.314C358.314 76.7605 358.964 81.7744 360.273 86.356L361.234 86.0813ZM359.314 71.3213H360.314V30.0412H359.314H358.314V71.3213H359.314ZM359.314 30.0412H360.314C360.314 24.52 360.985 19.6646 362.308 15.4615L361.354 15.1612L360.401 14.861C359.004 19.2979 358.314 24.3625 358.314 30.0412H359.314ZM361.354 15.1612L362.31 15.4566C363.611 11.2453 365.891 7.99419 369.139 5.65242L368.554 4.84124L367.97 4.03007C364.338 6.6483 361.817 10.2772 360.399 14.8659L361.354 15.1612ZM368.554 4.84124L369.151 5.64348C372.358 3.25713 376.919 2.00124 382.954 2.00124V1.00124V0.00124359C376.67 0.00124359 371.631 1.30536 367.957 4.03901L368.554 4.84124ZM382.954 1.00124V2.00124C388.518 2.00124 392.73 3.1005 395.701 5.18048L396.274 4.36125L396.848 3.54202C393.419 1.14198 388.751 0.00124359 382.954 0.00124359V1.00124ZM396.274 4.36125L395.701 5.18048C398.702 7.28144 400.863 10.2918 402.164 14.272L403.114 13.9613L404.065 13.6505C402.646 9.3107 400.246 5.92106 396.848 3.54202L396.274 4.36125ZM403.114 13.9613L402.166 14.2775C403.484 18.2313 404.154 22.9198 404.154 28.3612H405.154H406.154C406.154 22.7627 405.465 17.8512 404.063 13.645L403.114 13.9613ZM405.154 28.3612H404.154V33.2812H405.154H406.154V28.3612H405.154ZM405.154 33.2812V32.2812H398.914V33.2812V34.2812H405.154V33.2812ZM398.914 33.2812H399.914V28.3612H398.914H397.914V33.2812H398.914ZM398.914 28.3612H399.914C399.914 23.6643 399.47 19.6491 398.559 16.3361L397.594 16.6012L396.63 16.8664C397.479 19.9534 397.914 23.7782 397.914 28.3612H398.914ZM397.594 16.6012L398.56 16.3421C397.633 12.8849 395.924 10.1602 393.399 8.24455L392.794 9.04124L392.19 9.83794C394.305 11.4423 395.796 13.7576 396.629 16.8604L397.594 16.6012ZM392.794 9.04124L393.399 8.24455C390.841 6.30456 387.317 5.40125 382.954 5.40125V6.40125V7.40125C387.072 7.40125 390.107 8.25793 392.19 9.83794L392.794 9.04124ZM382.954 6.40125V5.40125C378.195 5.40125 374.384 6.38345 371.662 8.49052L372.274 9.28124L372.887 10.072C375.125 8.33904 378.434 7.40125 382.954 7.40125V6.40125ZM372.274 9.28124L371.662 8.49052C368.983 10.5646 367.193 13.4478 366.266 17.0734L367.234 17.3212L368.203 17.5691C369.036 14.3147 370.605 11.8379 372.887 10.072L372.274 9.28124ZM367.234 17.3212L366.266 17.0734C365.36 20.6135 364.914 24.7 364.914 29.3213H365.914H366.914C366.914 24.8225 367.349 20.909 368.203 17.5691L367.234 17.3212ZM365.914 29.3213H364.914V72.2812H365.914H366.914V29.3213H365.914ZM365.914 72.2812H364.914C364.914 77.1431 365.4 81.3584 366.391 84.91L367.354 84.6413L368.318 84.3725C367.389 81.0441 366.914 77.0194 366.914 72.2812H365.914ZM367.354 84.6413L366.393 84.916C367.405 88.4583 369.239 91.2562 371.919 93.2443L372.514 92.4412L373.11 91.6382C370.83 89.9463 369.224 87.5442 368.316 84.3665L367.354 84.6413ZM372.514 92.4412L371.919 93.2443C374.633 95.2583 378.353 96.2012 382.954 96.2012V95.2012V94.2012C378.596 94.2012 375.356 93.3042 373.11 91.6382L372.514 92.4412ZM382.954 95.2012V96.2012C387.4 96.2012 390.974 95.2566 393.536 93.2247L392.914 92.4412L392.293 91.6578C390.215 93.3059 387.149 94.2012 382.954 94.2012V95.2012ZM392.914 92.4412L393.536 93.2247C396.054 91.2275 397.721 88.4625 398.566 84.9982L397.594 84.7612L396.623 84.5243C395.868 87.62 394.415 89.975 392.293 91.6578L392.914 92.4412ZM397.594 84.7612L398.562 85.0146C399.468 81.5533 399.914 77.5852 399.914 73.1212H398.914H397.914C397.914 77.4573 397.48 81.2492 396.627 84.5079L397.594 84.7612ZM398.914 73.1212H399.914V67.2412H398.914H397.914V73.1212H398.914ZM398.914 67.2412V68.2412H405.154V67.2412V66.2412H398.914V67.2412ZM405.154 67.2412H404.154V72.0412H405.154H406.154V67.2412H405.154ZM405.154 72.0412H404.154C404.154 77.4858 403.523 82.3074 402.276 86.5172L403.234 86.8012L404.193 87.0853C405.506 82.6551 406.154 77.6367 406.154 72.0412H405.154ZM403.234 86.8012L402.276 86.5172C401.048 90.66 398.918 93.8736 395.902 96.2108L396.514 97.0013L397.127 97.7917C400.511 95.1689 402.861 91.5825 404.193 87.0853L403.234 86.8012ZM396.514 97.0013L395.914 96.2012C392.951 98.4239 388.674 99.6013 382.954 99.6013V100.601V101.601C388.915 101.601 393.678 100.379 397.114 97.8012L396.514 97.0013ZM419.945 99.2812H418.945V100.281H419.945V99.2812ZM419.945 2.08125V1.08125H418.945V2.08125H419.945ZM453.545 2.08125H454.545V1.08125H453.545V2.08125ZM453.545 7.36124V8.36124H454.545V7.36124H453.545ZM426.545 7.36124V6.36124H425.545V7.36124H426.545ZM426.545 46.3613H425.545V47.3613H426.545V46.3613ZM448.745 46.3613H449.745V45.3613H448.745V46.3613ZM448.745 51.4012V52.4012H449.745V51.4012H448.745ZM426.545 51.4012V50.4012H425.545V51.4012H426.545ZM426.545 94.1212H425.545V95.1212H426.545V94.1212ZM453.905 94.1212H454.905V93.1212H453.905V94.1212ZM453.905 99.2812V100.281H454.905V99.2812H453.905ZM419.945 99.2812H420.945V2.08125H419.945H418.945V99.2812H419.945ZM419.945 2.08125V3.08125H453.545V2.08125V1.08125H419.945V2.08125ZM453.545 2.08125H452.545V7.36124H453.545H454.545V2.08125H453.545ZM453.545 7.36124V6.36124H426.545V7.36124V8.36124H453.545V7.36124ZM426.545 7.36124H425.545V46.3613H426.545H427.545V7.36124H426.545ZM426.545 46.3613V47.3613H448.745V46.3613V45.3613H426.545V46.3613ZM448.745 46.3613H447.745V51.4012H448.745H449.745V46.3613H448.745ZM448.745 51.4012V50.4012H426.545V51.4012V52.4012H448.745V51.4012ZM426.545 51.4012H425.545V94.1212H426.545H427.545V51.4012H426.545ZM426.545 94.1212V95.1212H453.905V94.1212V93.1212H426.545V94.1212ZM453.905 94.1212H452.905V99.2812H453.905H454.905V94.1212H453.905ZM453.905 99.2812V98.2812H419.945V99.2812V100.281H453.905V99.2812ZM0.999995 247.281H-4.76837e-06V248.281H0.999995V247.281ZM0.999995 150.081V149.081H-4.76837e-06V150.081H0.999995ZM7.6 150.081H8.6V149.081H7.6V150.081ZM7.6 204.681H6.6L8.48849 205.14L7.6 204.681ZM35.8 150.081V149.081H35.191L34.9115 149.622L35.8 150.081ZM42.28 150.081L43.1749 150.527L43.8959 149.081H42.28V150.081ZM21.76 191.241L20.865 190.795L20.6526 191.221L20.8494 191.655L21.76 191.241ZM47.2 247.281V248.281H48.7522L48.1106 246.868L47.2 247.281ZM40.72 247.281L39.8097 247.695L40.0762 248.281H40.72V247.281ZM17.8 196.881L18.7103 196.467L17.8835 194.649L16.9232 196.4L17.8 196.881ZM7.6 215.481L6.72318 215L6.6 215.225V215.481H7.6ZM7.6 247.281V248.281H8.6V247.281H7.6ZM0.999995 247.281H2V150.081H0.999995H-4.76837e-06V247.281H0.999995ZM0.999995 150.081V151.081H7.6V150.081V149.081H0.999995V150.081ZM7.6 150.081H6.6V204.681H7.6H8.6V150.081H7.6ZM7.6 204.681L8.48849 205.14L36.6885 150.54L35.8 150.081L34.9115 149.622L6.7115 204.222L7.6 204.681ZM35.8 150.081V151.081H42.28V150.081V149.081H35.8V150.081ZM42.28 150.081L41.385 149.635L20.865 190.795L21.76 191.241L22.6549 191.687L43.1749 150.527L42.28 150.081ZM21.76 191.241L20.8494 191.655L46.2894 247.695L47.2 247.281L48.1106 246.868L22.6706 190.828L21.76 191.241ZM47.2 247.281V246.281H40.72V247.281V248.281H47.2V247.281ZM40.72 247.281L41.6303 246.867L18.7103 196.467L17.8 196.881L16.8897 197.295L39.8097 247.695L40.72 247.281ZM17.8 196.881L16.9232 196.4L6.72318 215L7.6 215.481L8.47681 215.962L18.6768 197.362L17.8 196.881ZM7.6 215.481H6.6V247.281H7.6H8.6V215.481H7.6ZM7.6 247.281V246.281H0.999995V247.281V248.281H7.6V247.281ZM56.3153 247.281H55.3153V248.281H56.3153V247.281ZM56.3153 150.081V149.081H55.3153V150.081H56.3153ZM93.0353 153.321L92.4561 154.136L92.4682 154.145L92.4806 154.153L93.0353 153.321ZM99.3953 161.961L98.4386 162.252L98.4425 162.265L98.4466 162.277L99.3953 161.961ZM99.9953 184.401L99.0238 184.164L99.021 184.176L99.0186 184.187L99.9953 184.401ZM95.7953 192.801L95.0507 192.134L95.0494 192.135L95.7953 192.801ZM86.9153 197.121L86.7542 196.134L85.6188 196.32L85.9604 197.418L86.9153 197.121ZM102.515 247.281V248.281H103.874L103.47 246.984L102.515 247.281ZM96.0353 247.281L95.0798 247.576L95.2975 248.281H96.0353V247.281ZM80.9153 198.321L81.8708 198.026L81.6531 197.321H80.9153V198.321ZM62.7953 198.321V197.321H61.7953V198.321H62.7953ZM62.7953 247.281V248.281H63.7953V247.281H62.7953ZM62.7953 193.281H61.7953V194.281H62.7953V193.281ZM89.0753 191.001L89.6508 191.819L89.6608 191.812L89.6705 191.805L89.0753 191.001ZM93.5153 184.281L92.559 183.989L92.5552 184.001L92.5518 184.014L93.5153 184.281ZM91.7153 160.041L90.8673 160.571L90.872 160.579L90.8769 160.586L91.7153 160.041ZM62.7953 155.241V154.241H61.7953V155.241H62.7953ZM56.3153 247.281H57.3153V150.081H56.3153H55.3153V247.281H56.3153ZM56.3153 150.081V151.081H79.8353V150.081V149.081H56.3153V150.081ZM79.8353 150.081V151.081C85.4933 151.081 89.6547 152.146 92.4561 154.136L93.0353 153.321L93.6145 152.506C90.3359 150.177 85.6973 149.081 79.8353 149.081V150.081ZM93.0353 153.321L92.4806 154.153C95.4027 156.101 97.3841 158.788 98.4386 162.252L99.3953 161.961L100.352 161.67C99.1665 157.775 96.9079 154.701 93.59 152.489L93.0353 153.321ZM99.3953 161.961L98.4466 162.277C99.6071 165.759 100.195 169.69 100.195 174.081H101.195H102.195C102.195 169.513 101.583 165.363 100.344 161.645L99.3953 161.961ZM101.195 174.081H100.195C100.195 177.607 99.8037 180.967 99.0238 184.164L99.9953 184.401L100.967 184.638C101.787 181.276 102.195 177.756 102.195 174.081H101.195ZM99.9953 184.401L99.0186 184.187C98.3326 187.312 97.0067 189.952 95.0507 192.134L95.7953 192.801L96.5399 193.469C98.744 191.01 100.218 188.051 100.972 184.616L99.9953 184.401ZM95.7953 192.801L95.0494 192.135C93.2449 194.156 90.5215 195.519 86.7542 196.134L86.9153 197.121L87.0764 198.108C91.1491 197.443 94.3458 195.926 96.5412 193.467L95.7953 192.801ZM86.9153 197.121L85.9604 197.418L101.56 247.578L102.515 247.281L103.47 246.984L87.8702 196.824L86.9153 197.121ZM102.515 247.281V246.281H96.0353V247.281V248.281H102.515V247.281ZM96.0353 247.281L96.9908 246.986L81.8708 198.026L80.9153 198.321L79.9598 198.616L95.0798 247.576L96.0353 247.281ZM80.9153 198.321V197.321H62.7953V198.321V199.321H80.9153V198.321ZM62.7953 198.321H61.7953V247.281H62.7953H63.7953V198.321H62.7953ZM62.7953 247.281V246.281H56.3153V247.281V248.281H62.7953V247.281ZM62.7953 193.281V194.281H79.5953V193.281V192.281H62.7953V193.281ZM79.5953 193.281V194.281C83.8517 194.281 87.2507 193.508 89.6508 191.819L89.0753 191.001L88.4998 190.183C86.58 191.534 83.6589 192.281 79.5953 192.281V193.281ZM89.0753 191.001L89.6705 191.805C92.0297 190.057 93.6263 187.618 94.4788 184.549L93.5153 184.281L92.5518 184.014C91.8044 186.704 90.4409 188.745 88.4801 190.198L89.0753 191.001ZM93.5153 184.281L94.4717 184.573C95.3878 181.575 95.8353 178.072 95.8353 174.081H94.8353H93.8353C93.8353 177.93 93.4028 181.227 92.559 183.989L93.5153 184.281ZM94.8353 174.081H95.8353C95.8353 167.836 94.7857 162.93 92.5538 159.496L91.7153 160.041L90.8769 160.586C92.805 163.553 93.8353 168.007 93.8353 174.081H94.8353ZM91.7153 160.041L92.5633 159.511C90.2867 155.869 85.7548 154.241 79.4753 154.241V155.241V156.241C85.5158 156.241 89.1439 157.814 90.8673 160.571L91.7153 160.041ZM79.4753 155.241V154.241H62.7953V155.241V156.241H79.4753V155.241ZM62.7953 155.241H61.7953V193.281H62.7953H63.7953V155.241H62.7953ZM117.133 247.281H116.133V248.281H117.133V247.281ZM117.133 150.081V149.081H116.133V150.081H117.133ZM150.733 150.081H151.733V149.081H150.733V150.081ZM150.733 155.361V156.361H151.733V155.361H150.733ZM123.733 155.361V154.361H122.733V155.361H123.733ZM123.733 194.361H122.733V195.361H123.733V194.361ZM145.933 194.361H146.933V193.361H145.933V194.361ZM145.933 199.401V200.401H146.933V199.401H145.933ZM123.733 199.401V198.401H122.733V199.401H123.733ZM123.733 242.121H122.733V243.121H123.733V242.121ZM151.093 242.121H152.093V241.121H151.093V242.121ZM151.093 247.281V248.281H152.093V247.281H151.093ZM117.133 247.281H118.133V150.081H117.133H116.133V247.281H117.133ZM117.133 150.081V151.081H150.733V150.081V149.081H117.133V150.081ZM150.733 150.081H149.733V155.361H150.733H151.733V150.081H150.733ZM150.733 155.361V154.361H123.733V155.361V156.361H150.733V155.361ZM123.733 155.361H122.733V194.361H123.733H124.733V155.361H123.733ZM123.733 194.361V195.361H145.933V194.361V193.361H123.733V194.361ZM145.933 194.361H144.933V199.401H145.933H146.933V194.361H145.933ZM145.933 199.401V198.401H123.733V199.401V200.401H145.933V199.401ZM123.733 199.401H122.733V242.121H123.733H124.733V199.401H123.733ZM123.733 242.121V243.121H151.093V242.121V241.121H123.733V242.121ZM151.093 242.121H150.093V247.281H151.093H152.093V242.121H151.093ZM151.093 247.281V246.281H117.133V247.281V248.281H151.093V247.281ZM172.642 245.481L172.119 246.334L172.126 246.338L172.133 246.342L172.642 245.481ZM165.202 236.841L164.264 237.188L164.269 237.2L164.274 237.213L165.202 236.841ZM163.162 150.081V149.081H162.162V150.081H163.162ZM169.642 150.081H170.642V149.081H169.642V150.081ZM171.082 234.201L170.133 234.517L170.139 234.534L170.145 234.549L171.082 234.201ZM176.482 240.801L175.952 241.649L175.964 241.656L176.482 240.801ZM197.842 240.801L198.372 241.649L198.379 241.645L197.842 240.801ZM205.162 150.081V149.081H204.162V150.081H205.162ZM211.522 150.081H212.522V149.081H211.522V150.081ZM209.242 236.841L210.163 237.23L210.166 237.223L209.242 236.841ZM201.682 245.481L202.2 246.337L202.205 246.334L201.682 245.481ZM187.402 248.601V247.601C181.172 247.601 176.455 246.573 173.151 244.62L172.642 245.481L172.133 246.342C175.87 248.55 180.993 249.601 187.402 249.601V248.601ZM172.642 245.481L173.165 244.629C169.816 242.574 167.485 239.857 166.131 236.47L165.202 236.841L164.274 237.213C165.799 241.026 168.429 244.069 172.119 246.334L172.642 245.481ZM165.202 236.841L166.14 236.495C164.827 232.942 164.162 228.942 164.162 224.481H163.162H162.162C162.162 229.141 162.857 233.381 164.264 237.188L165.202 236.841ZM163.162 224.481H164.162V150.081H163.162H162.162V224.481H163.162ZM163.162 150.081V151.081H169.642V150.081V149.081H163.162V150.081ZM169.642 150.081H168.642V224.601H169.642H170.642V150.081H169.642ZM169.642 224.601H168.642C168.642 228.212 169.135 231.521 170.133 234.517L171.082 234.201L172.031 233.885C171.11 231.122 170.642 228.031 170.642 224.601H169.642ZM171.082 234.201L170.145 234.549C171.263 237.559 173.207 239.934 175.952 241.649L176.482 240.801L177.012 239.953C174.637 238.469 172.982 236.444 172.02 233.853L171.082 234.201ZM176.482 240.801L175.964 241.656C178.82 243.387 182.665 244.201 187.402 244.201V243.201V242.201C182.86 242.201 179.424 241.415 177 239.946L176.482 240.801ZM187.402 243.201V244.201C191.909 244.201 195.596 243.384 198.372 241.649L197.842 240.801L197.312 239.953C194.968 241.418 191.696 242.201 187.402 242.201V243.201ZM197.842 240.801L198.379 241.645C201.189 239.857 203.21 237.455 204.411 234.453L203.482 234.081L202.554 233.71C201.515 236.308 199.776 238.386 197.305 239.958L197.842 240.801ZM203.482 234.081L204.411 234.453C205.585 231.517 206.162 228.228 206.162 224.601H205.162H204.162C204.162 228.015 203.619 231.046 202.554 233.71L203.482 234.081ZM205.162 224.601H206.162V150.081H205.162H204.162V224.601H205.162ZM205.162 150.081V151.081H211.522V150.081V149.081H205.162V150.081ZM211.522 150.081H210.522V224.481H211.522H212.522V150.081H211.522ZM211.522 224.481H210.522C210.522 228.929 209.781 232.917 208.318 236.46L209.242 236.841L210.166 237.223C211.743 233.406 212.522 229.153 212.522 224.481H211.522ZM209.242 236.841L208.321 236.452C206.887 239.849 204.512 242.571 201.159 244.629L201.682 245.481L202.205 246.334C205.892 244.071 208.558 241.034 210.163 237.23L209.242 236.841ZM201.682 245.481L201.165 244.626C197.941 246.575 193.386 247.601 187.402 247.601V248.601V249.601C193.578 249.601 198.543 248.548 202.2 246.337L201.682 245.481ZM223.067 247.281H222.067V248.281H223.067V247.281ZM223.067 242.121L222.139 241.748L222.067 241.928V242.121H223.067ZM257.987 155.241L258.914 155.614L259.466 154.241H257.987V155.241ZM226.187 155.241H225.187V156.241H226.187V155.241ZM226.187 150.081V149.081H225.187V150.081H226.187ZM265.067 150.081H266.067V149.081H265.067V150.081ZM265.067 154.161L265.995 154.534L266.067 154.354V154.161H265.067ZM229.787 242.121L228.858 241.749L228.308 243.121H229.787V242.121ZM265.187 242.121H266.187V241.121H265.187V242.121ZM265.187 247.281V248.281H266.187V247.281H265.187ZM223.067 247.281H224.067V242.121H223.067H222.067V247.281H223.067ZM223.067 242.121L223.994 242.494L258.914 155.614L257.987 155.241L257.059 154.868L222.139 241.748L223.067 242.121ZM257.987 155.241V154.241H226.187V155.241V156.241H257.987V155.241ZM226.187 155.241H227.187V150.081H226.187H225.187V155.241H226.187ZM226.187 150.081V151.081H265.067V150.081V149.081H226.187V150.081ZM265.067 150.081H264.067V154.161H265.067H266.067V150.081H265.067ZM265.067 154.161L264.138 153.789L228.858 241.749L229.787 242.121L230.715 242.493L265.995 154.534L265.067 154.161ZM229.787 242.121V243.121H265.187V242.121V241.121H229.787V242.121ZM265.187 242.121H264.187V247.281H265.187H266.187V242.121H265.187ZM265.187 247.281V246.281H223.067V247.281V248.281H265.187V247.281ZM288.511 247.281L287.525 247.453L287.67 248.281H288.511V247.281ZM271.591 150.081V149.081H270.402L270.605 150.253L271.591 150.081ZM277.351 150.081L278.337 149.914L278.196 149.081H277.351V150.081ZM291.631 234.441L290.645 234.608L292.613 234.628L291.631 234.441ZM307.231 152.241V151.241H306.403L306.248 152.055L307.231 152.241ZM313.471 152.241L314.452 152.049L314.294 151.241H313.471V152.241ZM329.551 234.441L328.569 234.633L330.539 234.593L329.551 234.441ZM342.511 150.081V149.081H341.653L341.522 149.929L342.511 150.081ZM348.151 150.081L349.138 150.241L349.325 149.081H348.151V150.081ZM332.431 247.281V248.281H333.282L333.418 247.441L332.431 247.281ZM326.911 247.281L325.929 247.472L326.086 248.281H326.911V247.281ZM310.351 162.201L311.332 162.01L309.368 162.014L310.351 162.201ZM294.151 247.281V248.281H294.978L295.133 247.468L294.151 247.281ZM288.511 247.281L289.496 247.11L272.576 149.91L271.591 150.081L270.605 150.253L287.525 247.453L288.511 247.281ZM271.591 150.081V151.081H277.351V150.081V149.081H271.591V150.081ZM277.351 150.081L276.365 150.248L290.645 234.608L291.631 234.441L292.617 234.274L278.337 149.914L277.351 150.081ZM291.631 234.441L292.613 234.628L308.213 152.428L307.231 152.241L306.248 152.055L290.648 234.255L291.631 234.441ZM307.231 152.241V153.241H313.471V152.241V151.241H307.231V152.241ZM313.471 152.241L312.489 152.433L328.569 234.633L329.551 234.441L330.532 234.249L314.452 152.049L313.471 152.241ZM329.551 234.441L330.539 234.593L343.499 150.233L342.511 150.081L341.522 149.929L328.562 234.289L329.551 234.441ZM342.511 150.081V151.081H348.151V150.081V149.081H342.511V150.081ZM348.151 150.081L347.163 149.922L331.443 247.122L332.431 247.281L333.418 247.441L349.138 150.241L348.151 150.081ZM332.431 247.281V246.281H326.911V247.281V248.281H332.431V247.281ZM326.911 247.281L327.892 247.09L311.332 162.01L310.351 162.201L309.369 162.392L325.929 247.472L326.911 247.281ZM310.351 162.201L309.368 162.014L293.168 247.094L294.151 247.281L295.133 247.468L311.333 162.388L310.351 162.201ZM294.151 247.281V246.281H288.511V247.281V248.281H294.151V247.281ZM361.117 247.281H360.117V248.281H361.117V247.281ZM361.117 150.081V149.081H360.117V150.081H361.117ZM394.717 150.081H395.717V149.081H394.717V150.081ZM394.717 155.361V156.361H395.717V155.361H394.717ZM367.717 155.361V154.361H366.717V155.361H367.717ZM367.717 194.361H366.717V195.361H367.717V194.361ZM389.917 194.361H390.917V193.361H389.917V194.361ZM389.917 199.401V200.401H390.917V199.401H389.917ZM367.717 199.401V198.401H366.717V199.401H367.717ZM367.717 242.121H366.717V243.121H367.717V242.121ZM395.077 242.121H396.077V241.121H395.077V242.121ZM395.077 247.281V248.281H396.077V247.281H395.077ZM361.117 247.281H362.117V150.081H361.117H360.117V247.281H361.117ZM361.117 150.081V151.081H394.717V150.081V149.081H361.117V150.081ZM394.717 150.081H393.717V155.361H394.717H395.717V150.081H394.717ZM394.717 155.361V154.361H367.717V155.361V156.361H394.717V155.361ZM367.717 155.361H366.717V194.361H367.717H368.717V155.361H367.717ZM367.717 194.361V195.361H389.917V194.361V193.361H367.717V194.361ZM389.917 194.361H388.917V199.401H389.917H390.917V194.361H389.917ZM389.917 199.401V198.401H367.717V199.401V200.401H389.917V199.401ZM367.717 199.401H366.717V242.121H367.717H368.717V199.401H367.717ZM367.717 242.121V243.121H395.077V242.121V241.121H367.717V242.121ZM395.077 242.121H394.077V247.281H395.077H396.077V242.121H395.077ZM395.077 247.281V246.281H361.117V247.281V248.281H395.077V247.281ZM415.307 244.881L414.701 245.677L414.707 245.681L414.713 245.686L415.307 244.881ZM408.227 234.321L407.265 234.596L407.267 234.604L407.27 234.612L408.227 234.321ZM408.227 162.801L407.273 162.501L407.27 162.509L407.268 162.517L408.227 162.801ZM415.427 152.721L415.999 153.541L416.005 153.537L416.011 153.532L415.427 152.721ZM443.267 152.361L442.693 153.181L442.703 153.187L443.267 152.361ZM450.227 161.961L449.276 162.272L449.279 162.28L449.282 162.288L450.227 161.961ZM452.387 180.081V181.081H453.387V180.081H452.387ZM446.147 180.081H445.147V181.081H446.147V180.081ZM444.707 164.361L443.747 164.642L443.749 164.649L444.707 164.361ZM439.787 156.921L439.2 157.731V157.731L439.787 156.921ZM419.147 157.401L419.759 158.192L419.767 158.186L419.774 158.18L419.147 157.401ZM414.107 165.561L413.136 165.319L413.134 165.327L413.133 165.335L414.107 165.561ZM414.347 232.281L413.382 232.544L413.383 232.55L414.347 232.281ZM440.027 240.441L439.418 239.648L439.412 239.653L439.405 239.658L440.027 240.441ZM444.947 232.521L443.983 232.252L443.98 232.263L443.978 232.273L444.947 232.521ZM446.387 206.001H447.387V205.001H446.387V206.001ZM430.907 206.001H429.907V207.001H430.907V206.001ZM430.907 200.961V199.961H429.907V200.961H430.907ZM452.507 200.961H453.507V199.961H452.507V200.961ZM452.507 247.281V248.281H453.507V247.281H452.507ZM448.307 247.281L447.31 247.369L447.391 248.281H448.307V247.281ZM447.347 236.361L448.343 236.274L446.394 236.057L447.347 236.361ZM441.347 245.361L441.968 246.144L441.971 246.142L441.347 245.361ZM429.587 248.601V247.601C423.543 247.601 419.024 246.382 415.9 244.077L415.307 244.881L414.713 245.686C418.309 248.34 423.31 249.601 429.587 249.601V248.601ZM415.307 244.881L415.913 244.086C412.738 241.667 410.489 238.333 409.183 234.031L408.227 234.321L407.27 234.612C408.684 239.27 411.155 242.976 414.701 245.677L415.307 244.881ZM408.227 234.321L409.188 234.047C407.938 229.673 407.307 224.688 407.307 219.081H406.307H405.307C405.307 224.835 405.955 230.01 407.265 234.596L408.227 234.321ZM406.307 219.081H407.307V177.801H406.307H405.307V219.081H406.307ZM406.307 177.801H407.307C407.307 172.194 407.939 167.293 409.185 163.085L408.227 162.801L407.268 162.517C405.954 166.95 405.307 172.049 405.307 177.801H406.307ZM408.227 162.801L409.18 163.102C410.48 158.974 412.755 155.805 415.999 153.541L415.427 152.721L414.854 151.901C411.218 154.438 408.693 157.988 407.273 162.501L408.227 162.801ZM415.427 152.721L416.011 153.532C419.218 151.221 423.822 150.001 429.947 150.001V149.001V148.001C423.591 148.001 418.515 149.262 414.842 151.91L415.427 152.721ZM429.947 149.001V150.001C435.51 150.001 439.722 151.1 442.693 153.18L443.267 152.361L443.84 151.542C440.411 149.142 435.743 148.001 429.947 148.001V149.001ZM443.267 152.361L442.703 153.187C445.782 155.29 447.977 158.299 449.276 162.272L450.227 161.961L451.177 161.651C449.756 157.303 447.311 153.913 443.831 151.535L443.267 152.361ZM450.227 161.961L449.282 162.288C450.676 166.318 451.387 171.122 451.387 176.721H452.387H453.387C453.387 170.961 452.657 165.925 451.172 161.634L450.227 161.961ZM452.387 176.721H451.387V180.081H452.387H453.387V176.721H452.387ZM452.387 180.081V179.081H446.147V180.081V181.081H452.387V180.081ZM446.147 180.081H447.147V176.361H446.147H445.147V180.081H446.147ZM446.147 176.361H447.147C447.147 171.503 446.662 167.398 445.664 164.074L444.707 164.361L443.749 164.649C444.672 167.724 445.147 171.62 445.147 176.361H446.147ZM444.707 164.361L445.666 164.08C444.656 160.63 442.906 157.945 440.373 156.111L439.787 156.921L439.2 157.731C441.308 159.257 442.837 161.532 443.747 164.642L444.707 164.361ZM439.787 156.921L440.373 156.111C437.818 154.261 434.301 153.401 429.947 153.401V154.401V155.401C434.072 155.401 437.115 156.221 439.2 157.731L439.787 156.921ZM429.947 154.401V153.401C425.104 153.401 421.245 154.425 418.519 156.623L419.147 157.401L419.774 158.18C422.009 156.378 425.349 155.401 429.947 155.401V154.401ZM419.147 157.401L418.534 156.611C415.85 158.689 414.062 161.617 413.136 165.319L414.107 165.561L415.077 165.804C415.911 162.466 417.483 159.954 419.759 158.192L419.147 157.401ZM414.107 165.561L413.133 165.335C412.311 168.867 411.907 172.946 411.907 177.561H412.907H413.907C413.907 173.057 414.302 169.136 415.081 165.788L414.107 165.561ZM412.907 177.561H411.907V219.921H412.907H413.907V177.561H412.907ZM412.907 219.921H411.907C411.907 224.706 412.393 228.918 413.382 232.544L414.347 232.281L415.311 232.018C414.38 228.605 413.907 224.577 413.907 219.921H412.907ZM414.347 232.281L413.383 232.55C414.393 236.167 416.221 239.042 418.894 241.112L419.507 240.321L420.119 239.531C417.832 237.76 416.22 235.275 415.31 232.012L414.347 232.281ZM419.507 240.321L418.894 241.112C421.613 243.217 425.382 244.201 430.067 244.201V243.201V242.201C425.631 242.201 422.36 241.265 420.119 239.531L419.507 240.321ZM430.067 243.201V244.201C434.512 244.201 438.086 243.257 440.648 241.225L440.027 240.441L439.405 239.658C437.327 241.306 434.261 242.201 430.067 242.201V243.201ZM440.027 240.441L440.635 241.235C443.243 239.236 444.99 236.387 445.915 232.769L444.947 232.521L443.978 232.273C443.143 235.536 441.61 237.967 439.418 239.648L440.027 240.441ZM444.947 232.521L445.91 232.79C446.901 229.24 447.387 225.065 447.387 220.281H446.387H445.387C445.387 224.938 444.913 228.923 443.983 232.252L444.947 232.521ZM446.387 220.281H447.387V206.001H446.387H445.387V220.281H446.387ZM446.387 206.001V205.001H430.907V206.001V207.001H446.387V206.001ZM430.907 206.001H431.907V200.961H430.907H429.907V206.001H430.907ZM430.907 200.961V201.961H452.507V200.961V199.961H430.907V200.961ZM452.507 200.961H451.507V247.281H452.507H453.507V200.961H452.507ZM452.507 247.281V246.281H448.307V247.281V248.281H452.507V247.281ZM448.307 247.281L449.303 247.194L448.343 236.274L447.347 236.361L446.35 236.449L447.31 247.369L448.307 247.281ZM447.347 236.361L446.394 236.057C445.248 239.649 443.353 242.476 440.722 244.58L441.347 245.361L441.971 246.142C444.941 243.767 447.046 240.593 448.299 236.665L447.347 236.361ZM441.347 245.361L440.725 244.578C438.248 246.545 434.584 247.601 429.587 247.601V248.601V249.601C434.829 249.601 439.005 248.498 441.968 246.144L441.347 245.361Z" fill="black" mask="url(#path-1-outside-1_2383_19)"/>
</svg>
