<svg width="94" height="62" viewBox="0 0 94 62" fill="none" xmlns="http://www.w3.org/2000/svg">
<path d="M0 30.6254V0.410327H8.32145C10.3614 0.410327 12.1277 0.634142 13.6203 1.08177C15.113 1.5294 16.2697 2.33762 17.0907 3.50644C17.9365 4.65038 18.3594 6.27926 18.3594 8.39307C18.3594 9.63649 18.2599 10.7431 18.0609 11.713C17.8619 12.6829 17.4887 13.5284 16.9414 14.2496C16.419 14.9459 15.6603 15.5303 14.6652 16.0028L18.8072 30.6254H11.9038L8.58267 17.0846H6.67955V30.6254H0ZM6.67955 13.2424H8.54535C9.49069 13.2424 10.2246 13.0807 10.747 12.7575C11.2694 12.4093 11.6301 11.9244 11.8292 11.3027C12.053 10.6561 12.165 9.88517 12.165 8.98991C12.165 7.69675 11.9287 6.68959 11.456 5.9684C10.9833 5.24722 10.1126 4.88663 8.84388 4.88663H6.67955V13.2424Z" fill="#404A54"/>
<path d="M20.136 30.6254V0.410327H35.077V4.96124H26.8156V12.459H32.0771V17.0846H26.8156V26.1118H33.7937V30.6254H20.136Z" fill="#404A54"/>
<path d="M37.0127 30.6254L33.3558 0.410327H39.0278L40.819 18.0171L43.0952 0.447631H47.5358L49.9241 17.9052L51.7525 0.410327H57.3499L53.7303 30.6254H47.909L45.3342 12.3844L42.9087 30.6254H37.0127Z" fill="#404A54"/>
<path d="M67.0993 31.073C64.7857 31.073 62.9697 30.7 61.6512 29.9539C60.3575 29.183 59.4495 28.0764 58.9271 26.634C58.4047 25.1668 58.1435 23.3762 58.1435 21.2624V0.410327H64.7484V22.2696C64.7484 22.8913 64.7981 23.513 64.8977 24.1347C64.9972 24.7564 65.2086 25.2662 65.532 25.6641C65.8803 26.062 66.4027 26.261 67.0993 26.261C67.8207 26.261 68.3432 26.062 68.6666 25.6641C68.99 25.2662 69.189 24.7564 69.2636 24.1347C69.3631 23.513 69.4129 22.8913 69.4129 22.2696V0.410327H76.0551V21.2624C76.0551 23.3762 75.7815 25.1668 75.2342 26.634C74.7117 28.0764 73.8037 29.183 72.5101 29.9539C71.2165 30.7 69.4129 31.073 67.0993 31.073Z" fill="#404A54"/>
<path d="M86.089 31.073C84.1983 31.073 82.6186 30.7373 81.3499 30.0658C80.0812 29.3944 79.1234 28.3623 78.4766 26.9697C77.8298 25.5522 77.469 23.7244 77.3944 21.4863L83.1037 20.6283C83.1286 21.9214 83.2406 22.9659 83.4396 23.7617C83.6635 24.5575 83.962 25.1295 84.3352 25.4776C84.7332 25.8258 85.2059 25.9999 85.7532 25.9999C86.4497 25.9999 86.8975 25.7636 87.0965 25.2911C87.3204 24.8186 87.4324 24.3212 87.4324 23.799C87.4324 22.5556 87.1339 21.5111 86.5368 20.6656C85.9398 19.7952 85.1312 18.9248 84.1113 18.0544L81.4992 15.779C80.3548 14.8091 79.3846 13.7149 78.5885 12.4963C77.8173 11.2529 77.4317 9.72352 77.4317 7.90813C77.4317 5.3467 78.1905 3.39453 79.708 2.05164C81.2255 0.683879 83.2903 0 85.9024 0C87.5195 0 88.8131 0.273552 89.7833 0.820656C90.7784 1.36776 91.5247 2.08894 92.0223 2.9842C92.5447 3.85459 92.893 4.78716 93.0671 5.78189C93.2661 6.75176 93.3781 7.68432 93.4029 8.57958L87.6563 9.28833C87.6314 8.39307 87.5692 7.62215 87.4697 6.97557C87.3951 6.30413 87.2209 5.79433 86.9473 5.44617C86.6736 5.07314 86.2507 4.88663 85.6786 4.88663C85.0566 4.88663 84.5964 5.14775 84.2979 5.66998C84.0242 6.19222 83.8874 6.71445 83.8874 7.23669C83.8874 8.35576 84.1486 9.27589 84.671 9.99708C85.2183 10.6934 85.9273 11.427 86.798 12.1979L89.2982 14.3988C90.6167 15.5178 91.7237 16.7861 92.6193 18.2036C93.5398 19.6211 94 21.3743 94 23.4633C94 24.8808 93.6766 26.1739 93.0298 27.3427C92.383 28.4867 91.4625 29.3944 90.2684 30.0658C89.0992 30.7373 87.706 31.073 86.089 31.073Z" fill="#404A54"/>
<path d="M6.90641 62C5.22761 62 3.90856 61.6513 2.94925 60.9538C2.01174 60.2564 1.34676 59.2757 0.954311 58.0116C0.561865 56.7257 0.365642 55.2436 0.365642 53.5654V43.2347C0.365642 41.5347 0.550964 40.0636 0.921607 38.8213C1.31405 37.579 1.98993 36.62 2.94925 35.9444C3.93036 35.247 5.30392 34.8983 7.06993 34.8983C8.66152 34.8983 9.91517 35.1925 10.8309 35.7809C11.7684 36.3694 12.4443 37.2303 12.8585 38.3636C13.2728 39.4969 13.4799 40.8809 13.4799 42.5155V43.4309H11.1252V42.5155C11.1252 41.2514 11.0053 40.2053 10.7655 39.3771C10.5474 38.5489 10.155 37.9277 9.58813 37.5136C9.02126 37.0995 8.19276 36.8925 7.10264 36.8925C5.88169 36.8925 4.96598 37.154 4.35551 37.6771C3.74504 38.2002 3.34169 38.9194 3.14547 39.8348C2.97105 40.7501 2.88384 41.7963 2.88384 42.9732V53.8597C2.88384 55.1456 2.99285 56.2462 3.21088 57.1616C3.45071 58.0552 3.87586 58.7526 4.48633 59.2539C5.1186 59.7333 6.00161 59.9731 7.13534 59.9731C8.24727 59.9731 9.09757 59.7333 9.68624 59.2539C10.2749 58.7526 10.6892 58.0443 10.929 57.1289C11.1688 56.2135 11.2887 55.102 11.2887 53.7943V50.6885H7.36427V48.8251H13.578V61.6404H11.9755L11.6812 58.6327C11.3541 59.6353 10.8091 60.4526 10.046 61.0846C9.3047 61.6949 8.25817 62 6.90641 62Z" fill="#404A54"/>
<path d="M17.6514 61.6404L18.3055 35.1598H20.791L26.0236 58.1423L31.3543 35.1598H33.8398L34.4939 61.6404H32.4336L31.9103 40.554L26.8412 61.6404H25.2387L20.235 40.5867L19.7118 61.6404H17.6514Z" fill="#404A54"/>
<path d="M38.8951 61.6404V35.1598H44.5856C45.7847 35.1598 46.7985 35.3124 47.627 35.6175C48.4555 35.9226 49.1205 36.3694 49.622 36.9579C50.1234 37.5463 50.4832 38.2546 50.7012 39.0828C50.941 39.8892 51.061 40.7828 51.061 41.7636C51.061 42.6136 50.9519 43.4418 50.7339 44.2482C50.5377 45.0328 50.1998 45.7084 49.7201 46.2751C49.2404 46.82 48.5646 47.1796 47.6925 47.3539C48.7172 47.6373 49.5239 48.1277 50.1125 48.8251C50.7012 49.5007 51.1046 50.2962 51.3226 51.2116C51.5624 52.1052 51.6823 53.0315 51.6823 53.9904C51.6823 55.0366 51.5842 56.0282 51.388 56.9654C51.2136 57.8808 50.8865 58.6872 50.4069 59.3846C49.949 60.0821 49.3167 60.6378 48.5101 61.0519C47.7034 61.4442 46.6786 61.6404 45.4359 61.6404H38.8951ZM41.3806 59.7769H44.9453C46.6677 59.7769 47.8124 59.3083 48.3792 58.3712C48.9679 57.434 49.2622 55.9738 49.2622 53.9904C49.2622 52.9225 49.1314 51.9744 48.8698 51.1462C48.6082 50.318 48.1612 49.6751 47.5289 49.2174C46.9185 48.7379 46.0791 48.4982 45.0107 48.4982H41.3806V59.7769ZM41.3806 46.5693H44.978C46.0028 46.5693 46.7877 46.3732 47.3327 45.9809C47.8778 45.5668 48.2593 45.011 48.4774 44.3136C48.6954 43.5943 48.8044 42.7444 48.8044 41.7636C48.8044 40.6957 48.6518 39.813 48.3465 39.1155C48.0631 38.4181 47.5616 37.9059 46.8422 37.579C46.1227 37.2521 45.0871 37.0886 43.7353 37.0886H41.3806V46.5693Z" fill="#404A54"/>
<path d="M55.2782 61.6404V35.1598H57.7964V46.8963H66.1359V35.1598H68.6214V61.6404H66.1359V48.7597H57.7964V61.6404H55.2782Z" fill="#404A54"/>
</svg>
