<svg width="148" height="62" viewBox="0 0 148 62" fill="none" xmlns="http://www.w3.org/2000/svg">
<path d="M0.426905 0.310914H8.0027V3.10914H3.34782V8.74571H7.35246V11.554H3.34782V17.1905H8.0027V19.9888H0.426905V0.310914Z" fill="#A79A8B"/>
<path d="M9.96373 4.13215C9.96373 1.37738 11.3605 0 14.1542 0C16.9547 0 18.3549 1.37738 18.3549 4.13215V6.77993H15.434V4.13215C15.434 3.24955 15.0108 2.80491 14.1645 2.79823H14.1438C13.3044 2.79823 12.8846 3.24287 12.8846 4.13215V5.9174C12.8846 6.7933 13.7964 7.86646 15.6198 9.13686C17.4432 10.4006 18.3549 11.915 18.3549 13.6802V16.1675C18.3549 18.929 16.9581 20.3097 14.1645 20.3097C11.364 20.303 9.96373 18.9223 9.96373 16.1675V13.5197H12.8846V16.1675C12.8846 17.0568 13.3113 17.5015 14.1645 17.5015C15.0108 17.5015 15.434 17.0568 15.434 16.1675V13.9209C15.434 12.9715 14.5223 11.8615 12.6989 10.5911C10.8754 9.32742 9.96373 7.78957 9.96373 5.97757V4.13215Z" fill="#A79A8B"/>
<path d="M27.2002 13.7905L30.5959 0.310914H33.5168V19.9888H30.7197V8.9463L28.222 19.9888H26.2403L23.6703 8.9463V19.9888H20.8423V0.310914H23.7632L27.2002 13.7905Z" fill="#A79A8B"/>
<path d="M49.009 0.310914V3.10914H46.2739V19.9888H43.3529V3.10914H40.6178V0.310914H49.009Z" fill="#A79A8B"/>
<path d="M50.8771 0.310914H58.4529V3.10914H53.798V8.74571H57.8027V11.554H53.798V17.1905H58.4529V19.9888H50.8771V0.310914Z" fill="#A79A8B"/>
<path d="M68.8051 16.1675C68.8051 18.9223 67.4049 20.303 64.6044 20.3097C61.8108 20.3097 60.414 18.929 60.414 16.1675V4.13215C60.414 1.37738 61.8108 0 64.6044 0C67.4049 0 68.8051 1.37738 68.8051 4.13215V6.77993H65.8842V4.13215C65.8842 3.24955 65.461 2.80491 64.6147 2.79823H64.5941C63.7546 2.79823 63.3349 3.24287 63.3349 4.13215V16.1675C63.3349 17.0568 63.758 17.5015 64.6044 17.5015C65.4576 17.5015 65.8842 17.0568 65.8842 16.1675V13.5197H68.8051V16.1675Z" fill="#A79A8B"/>
<path d="M71.1893 0.310914H74.1102V8.74571H76.6596V0.310914H79.5805V19.9888H76.6596V11.554H74.1102V19.9888H71.1893V0.310914Z" fill="#A79A8B"/>
<path d="M82.2743 0.310914H85.1953L87.9613 11.7245V0.310914H90.6655V19.9888H87.7446L85.0817 8.93627V19.9888H82.2743V0.310914Z" fill="#A79A8B"/>
<path d="M101.544 16.1675C101.544 18.9223 100.144 20.303 97.3434 20.3097C94.5497 20.3097 93.1529 18.929 93.1529 16.1675V4.13215C93.1529 1.37738 94.5497 0 97.3434 0C100.144 0 101.544 1.37738 101.544 4.13215V16.1675ZM98.6232 4.13215C98.6232 3.24955 98.2 2.80491 97.3537 2.79823H97.333C96.4936 2.79823 96.0738 3.24287 96.0738 4.13215V16.1675C96.0738 17.0568 96.497 17.5015 97.3434 17.5015C98.1966 17.5015 98.6232 17.0568 98.6232 16.1675V4.13215Z" fill="#A79A8B"/>
<path d="M104.032 19.9888V0.310914H106.952V17.1905H111.607V19.9888H104.032Z" fill="#A79A8B"/>
<path d="M121.547 16.1675C121.547 18.9223 120.146 20.303 117.346 20.3097C114.552 20.3097 113.155 18.929 113.155 16.1675V4.13215C113.155 1.37738 114.552 0 117.346 0C120.146 0 121.547 1.37738 121.547 4.13215V16.1675ZM118.626 4.13215C118.626 3.24955 118.203 2.80491 117.356 2.79823H117.336C116.496 2.79823 116.076 3.24287 116.076 4.13215V16.1675C116.076 17.0568 116.5 17.5015 117.346 17.5015C118.199 17.5015 118.626 17.0568 118.626 16.1675V4.13215Z" fill="#A79A8B"/>
<path d="M132.219 16.1675C132.219 18.9223 130.819 20.303 128.018 20.3097C125.224 20.3097 123.828 18.929 123.828 16.1675V4.13215C123.828 1.37738 125.224 0 128.018 0C130.819 0 132.219 1.37738 132.219 4.13215V6.77993H129.298V4.13215C129.298 3.24955 128.875 2.80491 128.028 2.79823H128.008C127.168 2.79823 126.749 3.24287 126.749 4.13215V16.1675C126.749 17.0568 127.172 17.5015 128.018 17.5015C128.871 17.5015 129.298 17.0568 129.298 16.1675V11.554H127.822V8.74571H132.219V16.1675Z" fill="#A79A8B"/>
<path d="M134.758 0.310914H137.679V19.9888H134.758V0.310914Z" fill="#A79A8B"/>
<path d="M140.424 0.310914H148V3.10914H143.345V8.74571H147.35V11.554H143.345V17.1905H148V19.9888H140.424V0.310914Z" fill="#A79A8B"/>
<path d="M16.9988 62C6.78929 62 0 54.8408 0 43.9244C0 33.0079 6.73825 25.8487 17.7134 25.8487C26.3404 25.8487 32.415 31.1292 33.3339 38.7962H25.6768C24.7579 34.8865 21.8993 32.2971 17.5092 32.2971C11.5367 32.2971 7.81024 37.0698 7.81024 43.9244C7.81024 50.7789 11.3835 55.5517 17.5092 55.5517C21.593 55.5517 25.7278 53.4191 26.4425 48.4433V47.9863H17.5603V41.9442H33.5381V62H27.4124V57.4303C25.5236 59.9183 22.0524 62 16.9988 62Z" fill="#404A54"/>
<path d="M39.6649 62V26.1534H49.7213L59.6244 52.2513L69.2213 26.1534H79.0735V62H71.7737V37.8822L62.4831 61.6954H56.2553L46.9647 37.8822V62H39.6649Z" fill="#404A54"/>
<path d="M85.1788 61.6954V26.1534H98.7574C107.027 26.1534 111.825 29.606 111.825 35.5466C111.825 40.0147 109.171 42.5534 105.087 43.4166C109.835 44.0259 113.102 46.5138 113.102 51.5913C113.102 57.7857 108.201 61.6954 99.421 61.6954H85.1788ZM98.9616 32.1447H92.8359V40.7764H98.9616C102.229 40.7764 104.168 39.1008 104.168 36.4605C104.168 33.8203 102.28 32.1447 98.9616 32.1447ZM99.472 46.6662H92.8359V55.6532H99.472C103.147 55.6532 105.24 53.9777 105.24 51.2359C105.24 48.3417 103.096 46.6662 99.472 46.6662Z" fill="#404A54"/>
<path d="M117.682 61.6954V26.1534H125.339V40.4209H139.53V26.1534H147.187V61.6954H139.53V47.0216H125.339V61.6954H117.682Z" fill="#404A54"/>
</svg>
