<svg width="168" height="62" viewBox="0 0 62 62" fill="none" xmlns="http://www.w3.org/2000/svg">
<path fill-rule="evenodd" clip-rule="evenodd" d="M37.9855 21.0153C37.9951 19.0691 37.5849 16.9036 36.9539 15.2678C35.8799 12.4836 34.8277 11.581 34.5271 10.915C38.6651 11.5183 42.0637 13.4053 44.8818 16.1012C45.1764 16.3831 46.4045 17.6816 46.5567 17.9559C47.3033 17.8792 55.5973 14.4671 56.9932 14.1071C56.62 13.0615 53.5713 9.62444 52.5004 8.60767C46.9494 3.33685 39.4299 0.00922255 31.2756 2.28175e-05C23.7758 -0.00841645 17.6662 2.32486 12.819 5.81552C8.68171 8.7949 4.77261 13.152 2.34041 19.0154C-0.17309 25.0747 -0.793322 32.5846 1.12412 39.2793C1.97269 42.2421 3.27042 45.235 4.74944 47.4962L7.9683 51.7341C8.21316 51.9949 8.38632 52.2333 8.64414 52.4983C8.9933 52.8573 9.76988 53.668 10.1633 53.9045C10.2145 45.9148 10.1692 37.7919 10.1673 29.7833C10.1666 26.7006 9.99645 24.3031 11.5221 21.53C12.4469 19.8488 13.7681 18.4486 15.5763 17.6056C16.6139 17.1218 20.3952 15.6267 21.4336 15.4823C26.2659 14.8102 29.3961 20.3396 26.9793 24.2404C25.9171 25.9547 24.5612 26.6032 22.2219 27.4615C21.5872 27.6944 11.0416 31.6154 10.7101 31.8772C10.761 32.2069 13.0301 36.3974 13.3775 37.0289C16.1102 41.9977 18.7951 47.4069 21.492 52.4643L25.5509 60.1808C26.3265 61.7121 26.1684 61.6361 26.9556 61.7304C32.3116 62.3721 36.8005 61.8716 41.589 60.1934C43.5035 59.5224 45.3025 58.618 46.9149 57.6715C48.8787 56.5187 49.3842 56.023 50.931 54.8205C52.2118 53.8247 53.3286 52.5137 54.3887 51.4098C54.6931 51.0928 54.9743 50.6995 55.2771 50.3353C58.9243 45.9495 61.4444 39.5063 61.903 33.4169C62.0898 30.9354 62.0104 28.4544 61.6332 26.0289C61.4617 24.9262 61.2545 23.8115 60.9621 22.7773C60.7862 22.155 60.2836 20.1974 59.9777 19.8222C59.2026 20.0282 55.432 21.5051 54.3899 21.9007C49.8458 23.6256 45.0035 25.5051 40.4833 27.1545C40.2538 27.2383 37.8608 28.0287 37.7938 28.2784L37.8044 38.7427C38.2587 38.6553 39.0024 38.3349 39.4549 38.1658L44.2552 36.3617C45.3454 35.9486 46.3782 35.5637 47.4369 35.1621C48.4223 34.7883 49.6399 34.2488 50.6323 33.9683C50.4905 36.1008 49.5024 38.7888 48.6439 40.4256C47.5443 42.5224 46.467 43.8467 45.1092 45.2637C43.8023 46.6275 42.3046 47.7364 40.3462 48.873C39.244 49.5127 35.5802 51.0463 34.0897 50.9839C33.9377 50.551 33.3972 49.6468 33.1465 49.1775C32.5213 48.0069 26.7314 36.9704 26.6248 36.5712C28.2117 36.175 30.0128 35.1417 31.1192 34.3378C35.1925 31.378 37.9576 26.6584 37.9855 21.0153Z" fill="#A79A8B"/>
</svg>
