<?xml version="1.0" encoding="UTF-8"?><svg id="Warstwa_2" xmlns="http://www.w3.org/2000/svg" viewBox="0 0 15.95 15.95">
  <g id="Layer_1">
    <g>
      <style>
        path {
          fill: #9D8255;
        }
      </style>
      <path
        d="M15.64,15.95c-.08,0-.16-.03-.22-.1l-1.9-2c-.12-.12-.11-.32,.01-.43,.12-.12,.32-.11,.43,.01l1.9,2c.12,.12,.11,.32-.01,.43-.06,.06-.14,.08-.21,.08Z" />
      <g>
        <path
          d="M12.02,14.72c-.64,0-1.26-.23-1.73-.65-.57-.49-.9-1.21-.9-1.97,0-1.35,1.01-2.47,2.34-2.61,.09-.01,.19-.02,.29-.02,1.45,0,2.63,1.18,2.63,2.63,0,.07,0,.13-.01,.2-.04,.57-.27,1.12-.67,1.56-.47,.52-1.1,.82-1.8,.86-.03,0-.09,0-.14,0Zm0-4.65c-.07,0-.15,0-.22,.01-1.02,.11-1.8,.97-1.8,2,0,.58,.25,1.13,.69,1.51,.37,.33,.86,.5,1.36,.5,.02,0,.04,0,.06,0,.56-.03,1.05-.26,1.41-.66,.31-.34,.49-.76,.52-1.21,0-.06,0-.1,0-.15,0-1.11-.9-2.02-2.02-2.02Z" />
        <path
          d="M7.97,15.95C3.58,15.95,0,12.37,0,7.98S3.58,0,7.97,0s7.97,3.58,7.97,7.97c0,1.6-.47,3.14-1.36,4.45-.08,.12-.23,.16-.36,.12-.13-.05-.21-.18-.2-.32,0-.04,0-.09,0-.13,0-1.11-.9-2.02-2.02-2.02-.07,0-.15,0-.22,.01-1.02,.11-1.8,.97-1.8,2,0,.58,.25,1.13,.69,1.51,.37,.33,.86,.5,1.36,.5,.02,0,.04,0,.06,0,.14-.02,.28,.06,.33,.19,.05,.13,0,.29-.12,.37-1.29,.84-2.79,1.29-4.35,1.29ZM7.97,.61C3.92,.61,.61,3.92,.61,7.98s3.3,7.36,7.36,7.36c1.13,0,2.24-.26,3.24-.75-.34-.11-.65-.29-.92-.53-.57-.49-.9-1.21-.9-1.97,0-1.35,1.01-2.47,2.34-2.61,.09-.01,.19-.02,.29-.02,1.18,0,2.18,.78,2.51,1.86,.53-1.03,.8-2.17,.8-3.34C15.34,3.92,12.03,.61,7.97,.61Z" />
        <path
          d="M7.97,15.95c-2.36,0-4.21-3.5-4.21-7.97S5.62,0,7.97,0s4.21,3.5,4.21,7.97c0,.63-.04,1.25-.11,1.84-.02,.14-.13,.25-.27,.27-1.02,.11-1.8,.97-1.8,2,0,.58,.25,1.13,.69,1.51,.11,.1,.14,.26,.06,.39-.76,1.26-1.75,1.96-2.78,1.96ZM7.97,.61c-1.98,0-3.59,3.3-3.59,7.36s1.61,7.36,3.59,7.36c.76,0,1.51-.51,2.13-1.45-.45-.48-.71-1.12-.71-1.79,0-1.26,.89-2.33,2.1-2.58,.05-.5,.08-1.01,.08-1.54,0-4.06-1.61-7.36-3.59-7.36Z" />
        <path
          d="M15.64,8.28H.31c-.17,0-.31-.14-.31-.31s.14-.31,.31-.31H15.64c.17,0,.31,.14,.31,.31s-.14,.31-.31,.31Z" />
        <path
          d="M7.97,15.95c-.17,0-.31-.14-.31-.31V.31c0-.17,.14-.31,.31-.31s.31,.14,.31,.31V15.64c0,.17-.14,.31-.31,.31Z" />
      </g>
    </g>
  </g>
</svg>