<?xml version="1.0" encoding="UTF-8"?>

<svg id="Warstwa_2" xmlns="http://www.w3.org/2000/svg" viewBox="0 0 9.36 15.95">
  <style>
    path {
      fill: #9D8255;
    }
  </style>
  <g id="Layer_1">
    <g>
      <path d="M9.05,2.43H.31c-.17,0-.31-.14-.31-.31s.14-.31,.31-.31H9.05c.17,0,.31,.14,.31,.31s-.14,.31-.31,.31Z" />
      <path
        d="M7.84,15.95H1.52c-.84,0-1.52-.68-1.52-1.52v-1.21c0-.17,.14-.31,.31-.31H9.05c.17,0,.31,.14,.31,.31v1.21c0,.84-.68,1.52-1.52,1.52ZM.61,13.52v.91c0,.5,.41,.91,.91,.91H7.84c.5,0,.91-.41,.91-.91v-.91H.61Z" />
      <path
        d="M9.05,13.52H.31c-.17,0-.31-.14-.31-.31V1.52C0,.68,.68,0,1.52,0H7.84c.84,0,1.52,.68,1.52,1.52V13.21c0,.17-.14,.31-.31,.31ZM.61,12.91H8.75V1.52c0-.5-.41-.91-.91-.91H1.52c-.5,0-.91,.41-.91,.91V12.91Z" />
      <path d="M5.45,14.73h-1.53c-.17,0-.31-.14-.31-.31s.14-.31,.31-.31h1.53c.17,0,.31,.14,.31,.31s-.14,.31-.31,.31Z" />
    </g>
  </g>
</svg>